<svg width="240" height="54" viewBox="0 0 240 54" fill="none" xmlns="http://www.w3.org/2000/svg">
<path d="M16.7436 1.74431C17.0367 1.52057 17.3279 1.29392 17.6169 1.06895L17.6177 1.06831C17.8132 0.916162 18.0077 0.764781 18.2022 0.614674C18.8449 1.08777 19.4884 1.55588 20.1308 2.02319C21.458 2.98871 22.7806 3.95085 24.082 4.9467C27.0185 7.20176 29.6044 9.78989 31.6747 12.8583C34.098 16.4503 35.5275 20.3857 35.8776 24.7019C35.9184 25.2259 35.9645 25.7443 36.0107 26.2641L36.0202 26.3704V28.2712L36.0108 28.3539C35.9845 28.5868 35.9591 28.8184 35.9338 29.0492C35.8861 29.4841 35.8388 29.9162 35.7858 30.3486L35.7857 30.3489C35.3501 33.9197 34.1418 37.2103 32.2471 40.274C30.344 43.3412 27.9209 45.9633 25.1077 48.22L25.1075 48.2202C23.7556 49.3059 22.3616 50.3267 20.957 51.3551C20.2865 51.846 19.6137 52.3386 18.9418 52.841C18.7021 53.0185 18.461 53.1971 18.2194 53.3784C17.0726 52.5488 15.9304 51.7243 14.7879 50.905L14.7877 50.9048C12.3729 49.1746 10.0864 47.3022 8.04608 45.163C4.77682 41.7269 2.35452 37.8231 1.26375 33.2088C1.03493 32.2351 0.904751 31.2531 0.770829 30.2429C0.706265 29.7558 0.640831 29.2622 0.563056 28.7599L0.563089 28.7598L0.562139 28.7542C0.55105 28.6876 0.536748 28.6225 0.525358 28.5706L0.522877 28.5593C0.513599 28.517 0.506047 28.4818 0.5 28.4492V25.1422C0.500389 25.1409 0.500784 25.1395 0.501186 25.1382C0.506176 25.1214 0.512353 25.1006 0.524764 25.0538C0.540791 24.9935 0.561216 24.9077 0.56771 24.8103C0.702854 23.0377 1.03414 21.3077 1.55593 19.6072C3.1525 14.4122 6.24898 10.2016 10.3412 6.68423C11.7172 5.50182 13.1656 4.42411 14.6298 3.33464C15.3329 2.81154 16.0396 2.28573 16.7436 1.74431ZM16.7436 1.74431C16.7434 1.74451 16.7431 1.74471 16.7428 1.74491L16.4394 1.34749L16.7442 1.74385C16.744 1.744 16.7438 1.74416 16.7436 1.74431ZM17.9325 52.5499L18.2239 52.7609L18.5166 52.5515C18.8004 52.3484 19.0746 52.1492 19.3443 51.9532C19.7771 51.6387 20.1983 51.3326 20.6298 51.0322L20.6313 51.0311C23.7121 48.8683 26.6996 46.5515 29.1859 43.6255C32.4209 39.8226 34.4643 35.4847 35.1107 30.4991C35.5577 27.0638 35.3469 23.6712 34.4784 20.3249L34.4781 20.3239C33.2672 15.6982 30.7889 11.8247 27.4408 8.49552C25.2085 6.26961 22.6903 4.41275 20.1546 2.63644L20.1535 2.6357C19.808 2.39502 19.4743 2.14964 19.138 1.90236C18.9333 1.75193 18.7278 1.60078 18.518 1.44956L18.2215 1.23576L17.9278 1.45353C17.8017 1.54703 17.6785 1.63877 17.5573 1.72903C17.1374 2.04169 16.7413 2.3366 16.3329 2.62492C13.4964 4.62676 10.6905 6.71937 8.26562 9.30339L8.2654 9.30363C5.88952 11.8388 3.99594 14.695 2.75997 17.9675L2.75983 17.9679C1.07673 22.4348 0.778739 27.0258 1.57542 31.6784C2.20312 35.3485 3.65095 38.6898 5.81017 41.7179L6.18247 41.4524L5.81018 41.7179C8.06381 44.8781 10.8972 47.4275 13.9747 49.6898L13.9752 49.6901C14.8118 50.3036 15.6531 50.9086 16.4915 51.5115C16.9733 51.8579 17.4541 52.2036 17.9325 52.5499Z" fill="white" stroke="white"/>
<mask id="path-2-inside-1_2_1403" fill="white">
<path d="M18.3574 4.0174C20.4131 5.70333 22.544 7.32032 24.5245 9.10653C27.583 11.8579 29.9208 15.142 31.2871 19.0654C32.3024 21.9798 32.7098 24.9819 32.6346 28.0592C32.4779 34.3705 30.1151 39.7228 25.6715 44.1852C23.9354 45.9276 22.0113 47.4255 19.9932 48.8106C19.4918 49.1553 18.9904 49.5 18.4765 49.8196C18.3762 49.8823 18.1631 49.9011 18.0691 49.8384C15.0608 47.883 12.1652 45.7897 9.7648 43.0696C7.10115 40.0487 5.25853 36.6079 4.40617 32.6595C3.38458 27.915 3.58513 23.2333 5.30867 18.6706C6.69377 14.9916 9.00644 11.9331 11.8518 9.25068C13.8198 7.39553 15.957 5.75347 18.1318 4.16155C18.1694 4.13021 18.2133 4.10514 18.3574 4.0174ZM15.3741 36.5327C15.0545 38.1184 14.2836 39.4283 12.723 40.0989C12.1966 40.3245 11.62 40.4248 11.0371 40.5877V41.0139H25.496C25.5837 40.6504 25.5211 40.4624 25.1325 40.4686C24.8881 40.4686 24.6374 40.3934 24.3992 40.3308C22.6067 39.8294 21.6541 38.5508 21.1903 36.8398C20.8456 35.5738 20.8895 34.2764 20.8895 32.9791C20.8832 28.7235 20.8832 24.4617 20.8957 20.2061C20.8957 19.5731 20.9333 18.9338 21.0461 18.3134C21.3031 16.8593 21.9486 15.6184 23.2523 14.8036C23.9354 14.3774 24.6875 14.1643 25.5085 14.0954V13.6379H11.0183C11.0245 13.8134 11.0308 13.9512 11.0371 14.0829"/>
</mask>
<path d="M18.3574 4.0174C20.4131 5.70333 22.544 7.32032 24.5245 9.10653C27.583 11.8579 29.9208 15.142 31.2871 19.0654C32.3024 21.9798 32.7098 24.9819 32.6346 28.0592C32.4779 34.3705 30.1151 39.7228 25.6715 44.1852C23.9354 45.9276 22.0113 47.4255 19.9932 48.8106C19.4918 49.1553 18.9904 49.5 18.4765 49.8196C18.3762 49.8823 18.1631 49.9011 18.0691 49.8384C15.0608 47.883 12.1652 45.7897 9.7648 43.0696C7.10115 40.0487 5.25853 36.6079 4.40617 32.6595C3.38458 27.915 3.58513 23.2333 5.30867 18.6706C6.69377 14.9916 9.00644 11.9331 11.8518 9.25068C13.8198 7.39553 15.957 5.75347 18.1318 4.16155C18.1694 4.13021 18.2133 4.10514 18.3574 4.0174ZM15.3741 36.5327C15.0545 38.1184 14.2836 39.4283 12.723 40.0989C12.1966 40.3245 11.62 40.4248 11.0371 40.5877V41.0139H25.496C25.5837 40.6504 25.5211 40.4624 25.1325 40.4686C24.8881 40.4686 24.6374 40.3934 24.3992 40.3308C22.6067 39.8294 21.6541 38.5508 21.1903 36.8398C20.8456 35.5738 20.8895 34.2764 20.8895 32.9791C20.8832 28.7235 20.8832 24.4617 20.8957 20.2061C20.8957 19.5731 20.9333 18.9338 21.0461 18.3134C21.3031 16.8593 21.9486 15.6184 23.2523 14.8036C23.9354 14.3774 24.6875 14.1643 25.5085 14.0954V13.6379H11.0183C11.0245 13.8134 11.0308 13.9512 11.0371 14.0829" fill="white"/>
<path d="M18.3574 4.0174L18.9916 3.24417L18.4432 2.79448L17.8375 3.1632L18.3574 4.0174ZM24.5245 9.10653L23.8548 9.84912L23.8558 9.84998L24.5245 9.10653ZM31.2871 19.0654L30.3427 19.3943L30.3427 19.3944L31.2871 19.0654ZM32.6346 28.0592L33.6343 28.084L33.6343 28.0836L32.6346 28.0592ZM25.6715 44.1852L26.3799 44.8911L26.3801 44.8908L25.6715 44.1852ZM19.9932 48.8106L19.4273 47.9861L19.4267 47.9865L19.9932 48.8106ZM18.4765 49.8196L17.9484 48.9705L17.9465 48.9716L18.4765 49.8196ZM18.0691 49.8384L18.6239 49.0063L18.6141 49L18.0691 49.8384ZM9.7648 43.0696L9.01474 43.731L9.01501 43.7313L9.7648 43.0696ZM4.40617 32.6595L3.42857 32.87L3.42868 32.8705L4.40617 32.6595ZM5.30867 18.6706L6.24415 19.024L6.24454 19.0229L5.30867 18.6706ZM11.8518 9.25068L11.1659 8.52303L11.1659 8.52305L11.8518 9.25068ZM18.1318 4.16155L18.7224 4.96847L18.7478 4.9499L18.772 4.92977L18.1318 4.16155ZM12.723 40.0989L13.1169 41.018L13.1178 41.0176L12.723 40.0989ZM11.0371 40.5877L10.7678 39.6247L10.0371 39.829V40.5877H11.0371ZM11.0371 41.0139H10.0371V42.0139H11.0371V41.0139ZM25.496 41.0139V42.0139H26.2833L26.4681 41.2486L25.496 41.0139ZM25.1325 40.4686V41.4686H25.1406L25.1486 41.4685L25.1325 40.4686ZM24.3992 40.3308L24.1298 41.2938L24.1372 41.2959L24.1447 41.2978L24.3992 40.3308ZM21.1903 36.8398L22.1555 36.5782L22.1552 36.5771L21.1903 36.8398ZM20.8895 32.9791L21.8895 32.9791L21.8895 32.9776L20.8895 32.9791ZM20.8957 20.2061L21.8957 20.2091V20.2061H20.8957ZM21.0461 18.3134L22.03 18.4922L22.0309 18.4874L21.0461 18.3134ZM23.2523 14.8036L22.723 13.9552L22.7223 13.9556L23.2523 14.8036ZM25.5085 14.0954L25.5922 15.0919L26.5085 15.0149V14.0954H25.5085ZM25.5085 13.6379H26.5085V12.6379H25.5085V13.6379ZM11.0183 13.6379V12.6379H9.98193L10.0189 13.6736L11.0183 13.6379ZM17.7233 4.79062C19.8192 6.50951 21.8965 8.0829 23.8548 9.84912L25.1943 8.36394C23.1916 6.55774 21.0071 4.89715 18.9916 3.24417L17.7233 4.79062ZM23.8558 9.84998C26.8052 12.5032 29.0386 15.6496 30.3427 19.3943L32.2315 18.7366C30.8029 14.6345 28.3609 11.2126 25.1933 8.36309L23.8558 9.84998ZM30.3427 19.3944C31.3141 22.1826 31.7075 25.0635 31.6349 28.0347L33.6343 28.0836C33.7121 24.9003 33.2907 21.7769 32.2314 18.7365L30.3427 19.3944ZM31.6349 28.0344C31.4847 34.0819 29.2316 39.1928 24.9629 43.4796L26.3801 44.8908C30.9985 40.2528 33.471 34.659 33.6343 28.084L31.6349 28.0344ZM24.9631 43.4794C23.2848 45.1637 21.4139 46.6226 19.4273 47.9861L20.5591 49.6351C22.6087 48.2283 24.586 46.6914 26.3799 44.8911L24.9631 43.4794ZM19.4267 47.9865C18.9221 48.3335 18.4395 48.665 17.9484 48.9705L19.0046 50.6688C19.5413 50.335 20.0616 49.9771 20.5597 49.6346L19.4267 47.9865ZM17.9465 48.9716C18.0288 48.9202 18.0952 48.8999 18.1231 48.8924C18.1565 48.8834 18.1848 48.8794 18.21 48.8779C18.2339 48.8764 18.2749 48.876 18.3304 48.8857C18.3775 48.8939 18.493 48.9192 18.6238 49.0064L17.5144 50.6705C17.8347 50.884 18.1803 50.8833 18.3309 50.8742C18.5064 50.8636 18.7662 50.8178 19.0065 50.6676L17.9465 48.9716ZM18.6141 49C15.6261 47.0578 12.823 45.0238 10.5146 42.4079L9.01501 43.7313C11.5074 46.5556 14.4955 48.7082 17.5241 50.6769L18.6141 49ZM10.5149 42.4083C7.95325 39.5031 6.19659 36.2143 5.38365 32.4484L3.42868 32.8705C4.32048 37.0016 6.24906 40.5944 9.01474 43.731L10.5149 42.4083ZM5.38376 32.449C4.39801 27.871 4.59604 23.387 6.24415 19.024L4.37319 18.3172C2.57423 23.0796 2.37115 27.9591 3.42857 32.87L5.38376 32.449ZM6.24454 19.0229C7.56258 15.5221 9.77169 12.586 12.5378 9.97832L11.1659 8.52305C8.2412 11.2802 5.82496 14.4612 4.3728 18.3183L6.24454 19.0229ZM12.5378 9.97834C14.4598 8.1665 16.557 6.55359 18.7224 4.96847L17.5411 3.35462C15.357 4.95335 13.1798 6.62455 11.1659 8.52303L12.5378 9.97834ZM18.772 4.92977C18.7399 4.95647 18.7165 4.97001 18.7364 4.95751C18.7465 4.95115 18.7613 4.94213 18.7861 4.92705C18.8079 4.91374 18.842 4.89312 18.8774 4.87159L17.8375 3.1632C17.7748 3.20137 17.7144 3.23767 17.6729 3.26374C17.6254 3.29354 17.5613 3.33529 17.4916 3.39332L18.772 4.92977ZM14.3938 36.3351C14.1169 37.7089 13.4968 38.678 12.3282 39.1801L13.1178 41.0176C15.0704 40.1786 15.9921 38.5278 16.3544 36.7303L14.3938 36.3351ZM12.3291 39.1797C11.8808 39.3718 11.4848 39.4242 10.7678 39.6247L11.3063 41.5508C11.7551 41.4253 12.5123 41.2772 13.1169 41.018L12.3291 39.1797ZM10.0371 40.5877V41.0139H12.0371V40.5877H10.0371ZM11.0371 42.0139H25.496V40.0139H11.0371V42.0139ZM26.4681 41.2486C26.5123 41.0652 26.6281 40.5658 26.3574 40.1001C26.0201 39.5197 25.4088 39.4641 25.1164 39.4688L25.1486 41.4685C25.1765 41.4681 25.114 41.4742 25.011 41.4351C24.8861 41.3877 24.7324 41.2842 24.6283 41.1051C24.5356 40.9457 24.5306 40.8085 24.5309 40.7688C24.5311 40.7292 24.5369 40.7255 24.5239 40.7793L26.4681 41.2486ZM25.1325 39.4686C25.0504 39.4686 24.9546 39.4429 24.6537 39.3637L24.1447 41.2978C24.3201 41.344 24.7257 41.4686 25.1325 41.4686V39.4686ZM24.6686 39.3677C23.3045 38.9862 22.5541 38.049 22.1555 36.5782L20.2251 37.1014C20.754 39.0526 21.909 40.6726 24.1298 41.2938L24.6686 39.3677ZM22.1552 36.5771C21.854 35.471 21.8895 34.3342 21.8895 32.9791H19.8895C19.8895 34.2187 19.8372 35.6766 20.2254 37.1025L22.1552 36.5771ZM21.8895 32.9776C21.8832 28.723 21.8832 24.4627 21.8957 20.2091L19.8957 20.2032C19.8832 24.4607 19.8832 28.7241 19.8895 32.9806L21.8895 32.9776ZM21.8957 20.2061C21.8957 19.6101 21.9314 19.0347 22.03 18.4922L20.0623 18.1345C19.9353 18.833 19.8957 19.5361 19.8957 20.2061H21.8957ZM22.0309 18.4874C22.2528 17.2317 22.7804 16.2778 23.7823 15.6516L22.7223 13.9556C21.1169 14.959 20.3534 16.4869 20.0614 18.1393L22.0309 18.4874ZM23.7816 15.652C24.3039 15.3262 24.8955 15.1504 25.5922 15.0919L25.4249 13.0989C24.4795 13.1783 23.5669 13.4287 22.723 13.9552L23.7816 15.652ZM26.5085 14.0954V13.6379H24.5085V14.0954H26.5085ZM25.5085 12.6379H11.0183V14.6379H25.5085V12.6379ZM10.0189 13.6736C10.0254 13.8546 10.0319 13.9968 10.0382 14.1304L12.036 14.0353C12.0298 13.9056 12.0237 13.7721 12.0176 13.6022L10.0189 13.6736Z" fill="white" mask="url(#path-2-inside-1_2_1403)"/>
<path d="M10.4526 13.6428H26.0989V41.711H10.4526V13.6428Z" fill="white" stroke="white"/>
<path d="M22.8575 21.3531L22.4161 21.8806C22.5074 21.7264 22.5827 21.5804 22.6404 21.443C22.6694 21.3765 22.6958 21.3086 22.7198 21.2395L22.8575 21.3531ZM22.8575 21.3531C24.9258 18.8461 26.5177 17.5926 27.6395 17.5926H27.3401V17.5724H26.1193M22.8575 21.3531L22.7203 21.2382C22.7954 21.0218 22.8468 20.7931 22.8762 20.5535M26.1193 17.5724C26.5387 17.3297 26.9468 17.1694 27.3401 17.1141V17.0724H20.2175V17.0967C20.7884 17.123 21.2998 17.2759 21.7308 17.5724M26.1193 17.5724C25.8486 17.7292 25.5733 17.9203 25.2943 18.1398C24.5671 18.7118 23.7609 19.52 22.8762 20.5535M26.1193 17.5724H21.7308M21.7308 17.5724H20.2175V17.5926H20.0372C20.7642 17.5926 21.3408 17.812 21.767 18.257C22.1932 18.702 22.4063 19.2974 22.4063 20.0432C22.4063 20.5007 22.331 20.9018 22.1806 21.2465M21.7308 17.5724C21.8721 17.6697 22.0048 17.7824 22.1281 17.9111C22.6615 18.4681 22.9063 19.1973 22.9063 20.0432C22.9063 20.2182 22.8964 20.3884 22.8762 20.5535M22.1806 21.2465C22.1365 21.3521 22.0782 21.4671 22.0061 21.5914L22.2642 21.283L22.1806 21.2465ZM22.1806 21.2465L22.2651 21.2819L22.4718 21.0349C22.4722 21.0344 22.4726 21.034 22.473 21.0335C22.6091 20.8685 22.7435 20.7085 22.8762 20.5535M14.2224 30.491V30.9934V31.1741V31.8737V33.562C14.2224 34.8732 14.4389 35.9458 14.9482 36.6948C15.159 37.0048 15.4112 37.2518 15.7004 37.4367H10.8384C11.1345 37.251 11.3914 37.0014 11.603 36.6857C12.1039 35.938 12.3206 34.8673 12.3206 33.5557V21.422C12.3206 20.0997 12.1045 19.0224 11.6036 18.2742C11.4144 17.9892 11.1887 17.7579 10.931 17.5787H15.6066C15.3544 17.7572 15.1327 17.9863 14.946 18.2675C14.4387 19.0219 14.2224 20.0992 14.2224 21.4158V30.491ZM18.3875 26.8676L19.8127 25.1547L23.8589 34.4751C24.3337 35.5722 24.8555 36.4279 25.4421 36.9787C25.6254 37.1508 25.819 37.2973 26.0226 37.4178H21.429C21.8968 37.0853 22.1103 36.5856 22.1103 36.0063C22.1103 35.788 22.0675 35.5647 22.0108 35.3594L22.0087 35.3517L22.0064 35.3442C21.9425 35.1383 21.8219 34.8192 21.6433 34.4046L21.6431 34.4041L18.4593 27.0336L18.3875 26.8676Z" fill="#610C21" stroke="#610C21"/>
<path d="M116.221 37.1699C115.502 36.4345 114.44 35.9932 113.394 35.9932C111.367 35.9932 109.798 37.8236 109.798 40.0462C109.798 42.2361 111.302 44.1155 113.443 44.1155C114.489 44.1155 115.535 43.6742 116.221 43.0042V40.4384H113.606V39.8174H116.76V43.331C115.878 44.1809 114.636 44.7365 113.394 44.7365C111.024 44.7365 109.161 42.6283 109.161 40.0462C109.161 37.464 111.041 35.3722 113.361 35.3722C114.554 35.3722 115.715 35.8788 116.613 36.7286L116.221 37.1699Z" stroke="white" stroke-width="0.8" stroke-miterlimit="10"/>
<path d="M147.599 44.5404V35.5519H151.603C152.486 35.5519 153.156 35.8134 153.646 36.4181C154.022 36.8757 154.218 37.4313 154.218 38.0523C154.218 38.7224 153.973 39.3434 153.581 39.801C153.107 40.3403 152.453 40.5691 151.619 40.5691H148.22V44.524H147.599V44.5404ZM148.204 36.1729V39.9481H151.603C152.175 39.9481 152.714 39.8337 153.139 39.3598C153.45 39.0002 153.613 38.5426 153.613 38.0523C153.613 37.5948 153.466 37.1862 153.172 36.8267C152.796 36.3527 152.289 36.1729 151.587 36.1729H148.204Z" stroke="white" stroke-width="0.8" stroke-miterlimit="10"/>
<path d="M164.693 35.5519V41.3372C164.693 43.4945 163.271 44.7201 161.376 44.7201C159.48 44.7201 158.058 43.4945 158.058 41.3372V35.5519H158.663V41.3372C158.663 43.1186 159.839 44.0991 161.376 44.0991C162.928 44.0991 164.105 43.1022 164.105 41.3372V35.5519H164.693Z" stroke="white" stroke-width="0.8" stroke-miterlimit="10"/>
<path d="M169.547 44.5404V35.5519H173.747C174.678 35.5519 175.332 35.8624 175.79 36.4017C176.133 36.843 176.362 37.4313 176.362 38.1014C176.362 39.3107 175.626 40.324 174.433 40.5037L176.394 44.5404H175.708L173.812 40.5855H170.135V44.5404H169.547ZM170.135 36.1729V39.9481H174.041C175.087 39.9481 175.757 39.0819 175.757 38.085C175.757 37.5948 175.594 37.1535 175.332 36.8267C174.956 36.3691 174.45 36.1729 173.747 36.1729H170.135Z" stroke="white" stroke-width="0.8" stroke-miterlimit="10"/>
<path d="M120.356 44.5404L123.902 35.5519H124.54L128.086 44.5404H127.432L126.223 41.4516H122.186L120.977 44.5404H120.356ZM122.399 40.8796H125.994L124.245 36.3527H124.18L122.399 40.8796Z" stroke="white" stroke-width="0.8" stroke-miterlimit="10"/>
<path d="M137.826 44.5404H131.06V44.0828L136.878 36.1729H131.518V35.5519H137.695V36.0095L131.894 43.9193H137.826V44.5404Z" stroke="white" stroke-width="0.8" stroke-miterlimit="10"/>
<path d="M142.598 35.5519H141.993V44.5404H142.598V35.5519Z" stroke="white" stroke-width="0.8" stroke-miterlimit="10"/>
<path d="M48.2261 23.8997V23.9202V24.1611V24.9381V25.1744C48.2261 25.6745 48.3252 26.1489 48.5933 26.5211H47.0226C47.2795 26.1573 47.3957 25.6895 47.3957 25.1744V20.0265C47.3957 19.5227 47.2953 19.0555 47.0349 18.6797H48.5933C48.3245 19.0534 48.2261 19.5311 48.2261 20.0428V23.8997ZM53.2817 25.4112L51.3706 22.4298L51.935 21.9796L54.434 25.8043C54.4344 25.8048 54.4347 25.8054 54.4351 25.8059C54.6299 26.1088 54.8381 26.3698 55.0615 26.5865H53.5686C53.6049 26.4846 53.6223 26.3777 53.6223 26.2693C53.6223 26.1413 53.5943 25.9894 53.5293 25.8515C53.4968 25.7759 53.4527 25.7025 53.4235 25.6538L53.4203 25.6485C53.4155 25.6405 53.4107 25.6326 53.4059 25.6246C53.3719 25.5679 53.3374 25.5107 53.2997 25.4416L53.2913 25.4261L53.2817 25.4112ZM53.9121 18.7124H54.8972C54.6474 18.871 54.3863 19.0532 54.1141 19.258C54.0863 19.0614 54.0191 18.877 53.9121 18.7124Z" fill="white" stroke="white"/>
<path d="M66.152 25.9578C66.2522 26.1726 66.366 26.361 66.4876 26.5211H65.2655C65.2944 26.4232 65.3074 26.3221 65.3074 26.2203C65.3074 26.021 65.2531 25.8086 65.1736 25.6097C65.104 25.4358 64.9687 25.1149 64.7513 24.6633L64.7513 24.6633L64.748 24.6566C64.7396 24.6398 64.7401 24.6403 64.7405 24.6414C64.7408 24.6421 64.7407 24.642 64.7402 24.6405C64.7397 24.6389 64.7385 24.635 64.7368 24.6282L64.7235 24.575L64.699 24.5259C64.6917 24.5114 64.6878 24.5027 64.6815 24.4887C64.6775 24.4797 64.6724 24.4685 64.6649 24.4521C64.6584 24.4382 64.6505 24.4214 64.6409 24.4027L64.3808 23.8251L62.5994 19.8702L62.5652 19.7941L62.9343 18.9615L66.1508 25.9553L66.1508 25.9553L66.152 25.9578ZM59.2222 26.5048C59.3083 26.4213 59.3929 26.3294 59.476 26.2294C59.5043 26.2922 59.5374 26.3542 59.5755 26.415C59.5937 26.4458 59.6124 26.4757 59.6316 26.5048H59.2222Z" fill="white" stroke="white"/>
<path d="M71.1295 19.0785C70.9782 19.2515 70.8393 19.4318 70.7167 19.6123V18.6797H71.5374C71.3914 18.7987 71.2552 18.9315 71.1295 19.0785ZM71.3214 26.4907L71.2984 26.5211H70.3848L76.3346 18.6948L76.3461 18.6797H77.2291L71.3214 26.4907ZM77.3076 26.0587C77.5071 25.8093 77.6856 25.5614 77.839 25.3033V26.5211H76.8463C77.0074 26.3877 77.1589 26.2365 77.3005 26.0674L77.3006 26.0674L77.3076 26.0587Z" fill="white" stroke="white"/>
<path d="M82.3977 19.7883L82.4011 19.8174V19.8467V19.8508V19.855V19.8591V19.8632V19.8674V19.8716V19.8757V19.8799V19.8841V19.8883V19.8925V19.8968V19.901V19.9052V19.9095V19.9137V19.918V19.9223V19.9266V19.9309V19.9352V19.9395V19.9438V19.9481V19.9525V19.9568V19.9612V19.9655V19.9699V19.9743V19.9787V19.9831V19.9875V19.9919V19.9963V20.0008V20.0052V20.0097V20.0141V20.0186V20.0231V20.0276V20.0321V20.0366V20.0411V20.0456V20.0501V20.0547V20.0592V20.0638V20.0684V20.073V20.0775V20.0821V20.0868V20.0914V20.096V20.1006V20.1053V20.1099V20.1146V20.1192V20.1239V20.1286V20.1333V20.138V20.1427V20.1475V20.1522V20.1569V20.1617V20.1664V20.1712V20.176V20.1808V20.1856V20.1904V20.1952V20.2V20.2048V20.2097V20.2145V20.2194V20.2243V20.2291V20.234V20.2389V20.2438V20.2487V20.2536V20.2586V20.2635V20.2685V20.2734V20.2784V20.2834V20.2883V20.2933V20.2983V20.3033V20.3084V20.3134V20.3184V20.3235V20.3285V20.3336V20.3387V20.3438V20.3489V20.354V20.3591V20.3642V20.3693V20.3744V20.3796V20.3847V20.3899V20.3951V20.4003V20.4055V20.4107V20.4159V20.4211V20.4263V20.4315V20.4368V20.442V20.4473V20.4526V20.4578V20.4631V20.4684V20.4737V20.4791V20.4844V20.4897V20.4951V20.5004V20.5058V20.5111V20.5165V20.5219V20.5273V20.5327V20.5381V20.5436V20.549V20.5544V20.5599V20.5653V20.5708V20.5763V20.5818V20.5873V20.5928V20.5983V20.6038V20.6093V20.6149V20.6204V20.626V20.6316V20.6371V20.6427V20.6483V20.6539V20.6595V20.6651V20.6708V20.6764V20.6821V20.6877V20.6934V20.6991V20.7047V20.7104V20.7161V20.7219V20.7276V20.7333V20.739V20.7448V20.7505V20.7563V20.7621V20.7679V20.7737V20.7795V20.7853V20.7911V20.7969V20.8027V20.8086V20.8145V20.8203V20.8262V20.8321V20.838V20.8439V20.8498V20.8557V20.8616V20.8675V20.8735V20.8794V20.8854V20.8914V20.8974V20.9033V20.9093V20.9154V20.9214V20.9274V20.9334V20.9395V20.9455V20.9516V20.9577V20.9637V20.9698V20.9759V20.982V20.9881V20.9943V21.0004V21.0065V21.0127V21.0189V21.025V21.0312V21.0374V21.0436V21.0498V21.056V21.0622V21.0685V21.0747V21.0809V21.0872V21.0935V21.0997V21.106V21.1123V21.1186V21.1249V21.1313V21.1376V21.1439V21.1503V21.1566V21.163V21.1694V21.1758V21.1822V21.1886V21.195V21.2014V21.2078V21.2143V21.2207V21.2272V21.2336V21.2401V21.2466V21.2531V21.2596V21.2661V21.2726V21.2791V21.2857V21.2922V21.2988V21.3053V21.3119V21.3185V21.3251V21.3317V21.3383V21.3449V21.3515V21.3582V21.3648V21.3715V21.3781V21.3848V21.3915V21.3982V21.4049V21.4116V21.4183V21.425V21.4318V21.4385V21.4453V21.452V21.4588V21.4656V21.4724V21.4792V21.486V21.4928V21.4996V21.5064V21.5133V21.5201V21.527V21.5339V21.5407V21.5476V21.5545V21.5614V21.5683V21.5753V21.5822V21.5891V21.5961V21.603V21.61V21.617V21.624V21.631V21.638V21.645V21.652V21.659V21.6661V21.6731V21.6802V21.6872V21.6943V21.7014V21.7085V21.7156V21.7227V21.7298V21.737V21.7441V21.7512V21.7584V21.7656V21.7727V21.7799V21.7871V21.7943V21.8015V21.8088V21.816V21.8232V21.8305V21.8377V21.845V21.8523V21.8595V21.8668V21.8741V21.8814V21.8888V21.8961V21.9034V21.9108V21.9181V21.9255V21.9329V21.9402V21.9476V21.955V21.9624V21.9698V21.9773V21.9847V21.9921V21.9996V22.0071V22.0145V22.022V22.0295V22.037V22.0445V22.052V22.0595V22.0671V22.0746V22.0822V22.0897V22.0973V22.1049V22.1125V22.1201V22.1277V22.1353V22.1429V22.1505V22.1582V22.1658V22.1735V22.1812V22.1888V22.1965V22.2042V22.2119V22.2196V22.2274V22.2351V22.2428V22.2506V22.2583V22.2661V22.2739V22.2817V22.2895V22.2973V22.3051V22.3129V22.3207V22.3286V22.3364V22.3443V22.3521V22.36V22.3679V22.3758V22.3837V22.3916V22.3995V22.4074V22.4154V22.4233V22.4313V22.4392V22.4472V22.4552V22.4632V22.4712V22.4792V22.4872V22.4952V22.5033V22.5113V22.5194V22.5274V22.5355V22.5436V22.5517V22.5598V22.5679V22.576V22.5841V22.5923V22.6004V22.6086V22.6167V22.6249V22.6331V22.6413V22.6495V22.6577V22.6659V22.6741V22.6823V22.6906V22.6988V22.7071V22.7154V22.7236V22.7319V22.7402V22.7485V22.7569V22.7652V22.7735V22.7818V22.7902V22.7986V22.8069V22.8153V22.8237V22.8321V22.8405V22.8489V22.8573V22.8658V22.8742V22.8826V22.8911V22.8996V22.908V22.9165V22.925V22.9335V22.942V22.9506V22.9591V22.9676V22.9762V22.9847V22.9933V23.0019V23.0105V23.0191V23.0277V23.0363V23.0449V23.0535V23.0622V23.0708V23.0795V23.0881V23.0968V23.1055V23.1142V23.1229V23.1316V23.1337V23.1358V23.1379V23.14V23.1421V23.1442V23.1463V23.1484V23.1505V23.1525V23.1546V23.1567V23.1588V23.1609V23.163V23.165V23.1671V23.1692V23.1713V23.1733V23.1754V23.1775V23.1795V23.1816V23.1837V23.1857V23.1878V23.1898V23.1919V23.1939V23.196V23.198V23.2001V23.2021V23.2042V23.2062V23.2082V23.2103V23.2123V23.2143V23.2164V23.2184V23.2204V23.2224V23.2245V23.2265V23.2285V23.2305V23.2325V23.2346V23.2366V23.2386V23.2406V23.2426V23.2446V23.2466V23.2486V23.2506V23.2526V23.2546V23.2566V23.2586V23.2606V23.2625V23.2645V23.2665V23.2685V23.2705V23.2724V23.2744V23.2764V23.2784V23.2803V23.2823V23.2843V23.2862V23.2882V23.2901V23.2921V23.2941V23.296V23.298V23.2999V23.3019V23.3038V23.3058V23.3077V23.3096V23.3116V23.3135V23.3154V23.3174V23.3193V23.3212V23.3232V23.3251V23.327V23.3289V23.3309V23.3328V23.3347V23.3366V23.3385V23.3404V23.3423V23.3442V23.3461V23.348V23.3499V23.3518V23.3537V23.3556V23.3575V23.3594V23.3613V23.3632V23.3651V23.3669V23.3688V23.3707V23.3726V23.3744V23.3763V23.3782V23.3801V23.3819V23.3838V23.3857V23.3875V23.3894V23.3912V23.3931V23.3949V23.3968V23.3986V23.4005V23.4023V23.4042V23.406V23.4078V23.4097V23.4115V23.4134V23.4152V23.417V23.4188V23.4207V23.4225V23.4243V23.4261V23.4279V23.4298V23.4316V23.4334V23.4352V23.437V23.4388V23.4406V23.4424V23.4442V23.446V23.4478V23.4496V23.4514V23.4532V23.455V23.4567V23.4585V23.4603V23.4621V23.4639V23.4656V23.4674V23.4692V23.471V23.4727V23.4745V23.4762V23.478V23.4798V23.4815V23.4833V23.485V23.4868V23.4885V23.4903V23.492V23.4938V23.4955V23.4972V23.499V23.5007V23.5025V23.5042V23.5059V23.5076V23.5094V23.5111V23.5128V23.5145V23.5162V23.518V23.5197V23.5214V23.5231V23.5248V23.5265V23.5282V23.5299V23.5316V23.5333V23.535V23.5367V23.5384V23.5401V23.5418V23.5434V23.5451V23.5468V23.5485V23.5502V23.5518V23.5535V23.5552V23.5568V23.5585V23.5602V23.5618V23.5635V23.5652V23.5668V23.5685V23.5701V23.5718V23.5734V23.5751V23.5767V23.5784V23.58V23.5816V23.5833V23.5849V23.5865V23.5882V23.5898V23.5914V23.593V23.5947V23.5963V23.5979V23.5995V23.6011V23.6027V23.6043V23.6059V23.6076V23.6092V23.6108V23.6124V23.614V23.6155V23.6171V23.6187V23.6203V23.6219V23.6235V23.6251V23.6267V23.6282V23.6298V23.6314V23.633V23.6345V23.6361V23.6377V23.6392V23.6408V23.6423V23.6439V23.6455V23.647V23.6486V23.6501V23.6517V23.6532V23.6547V23.6563V23.6578V23.6594V23.6609V23.6624V23.664V23.6655V23.667V23.6685V23.6701V23.6716V23.6731V23.6746V23.6761V23.6776V23.6791V23.6807V23.6822V23.6837V23.6852V23.6867V23.6882V23.6897V23.6911V23.6926V23.6941V23.6956V23.6971V23.6986V23.7001V23.7015V23.703V23.7045V23.706V23.7074V23.7089V23.7104V23.7118V23.7133V23.7147V23.7162V23.7177V23.7191V23.7206V23.722V23.7235V23.7249V23.7263V23.7278V23.7292V23.7307V23.7321V23.7335V23.735V23.7364V23.7378V23.7392V23.7407V23.7421V23.7435V23.7449V23.7463V23.7477V23.7491V23.7505V23.7519V23.7533V23.7547V23.7561V23.7575V23.7589V23.7603V23.7617V23.7631V23.7645V23.7659V23.7672V23.7686V23.77V23.7714V23.7728V23.7741V23.7755V23.7769V23.7782V23.7796V23.7809V23.7823V23.7837V23.785V23.7864V23.7877V23.789V23.7904V23.7917V23.7931V23.7944V23.7957V23.7971V23.7984V23.7997V23.8011V23.8024V23.8037V23.805V23.8064V23.8077V23.809V23.8103V23.8116V23.8129V23.8142V23.8155V23.8168V23.8181V23.8194V23.8207V23.822V23.8233V23.8246V23.8259V23.8272V23.8284V23.8297V23.831V23.8323V23.8335V23.8348V23.8361V23.8374V23.8386V23.8399V23.8411V23.8424V23.8437V23.8449V23.8462V23.8474V23.8487V23.8499V23.8511V23.8524V23.8536V23.8549V23.8561V23.8573V23.8585V23.8598V23.861V23.8622V23.8634V23.8647V23.8659V23.8671V23.8683V23.8695V23.8707V23.8719V23.8731V23.8743V23.8755V23.8767V23.8779V23.8791V23.8803V23.8815V23.8827V23.8839V23.885V23.8862V23.8874V23.8886V23.8897V23.8909V23.8921V23.8932V23.8944V23.8956V23.8967V23.8979V23.899V23.9002V23.9013V23.9025V23.9036V23.9048V23.9059V23.9071V23.9082V23.9093V23.9105V23.9116V23.9127V23.9139V23.915V23.9161V23.9172V23.9183V23.9195V23.9206V23.9217V23.9228V23.9239V23.925V23.9261V23.9272V23.9283V23.9294V23.9305V23.9316V23.9327V23.9337V23.9348V23.9359V23.937V23.9381V23.9391V23.9402V23.9413V23.9423V23.9434V23.9445V23.9455V23.9466V23.9477V23.9487V23.9498V23.9508V23.9519V23.9529V23.954V23.955V23.9561V23.9571V23.9582V23.9593V23.9603V23.9614V23.9624V23.9635V23.9645V23.9656V23.9667V23.9677V23.9688V23.9698V23.9709V23.972V23.973V23.9741V23.9752V23.9762V23.9773V23.9783V23.9794V23.9805V23.9815V23.9826V23.9837V23.9847V23.9858V23.9869V23.9879V23.989V23.9901V23.9911V23.9922V23.9933V23.9943V23.9954V23.9965V23.9975V23.9986V23.9997V24.0008V24.0018V24.0029V24.004V24.005V24.0061V24.0072V24.0083V24.0093V24.0104V24.0115V24.0126V24.0136V24.0147V24.0158V24.0169V24.0179V24.019V24.0201V24.0212V24.0222V24.0233V24.0244V24.0255V24.0265V24.0276V24.0287V24.0298V24.0309V24.0319V24.033V24.0341V24.0352V24.0363V24.0374V24.0384V24.0395V24.0406V24.0417V24.0428V24.0438V24.0449V24.046V24.0471V24.0482V24.0493V24.0504V24.0514V24.0525V24.0536V24.0547V24.0558V24.0569V24.058V24.0591V24.0601V24.0612V24.0623V24.0634V24.0645V24.0656V24.0667V24.0678V24.0689V24.0699V24.071V24.0721V24.0732V24.0743V24.0754V24.0765V24.0776V24.0787V24.0798V24.0809V24.082V24.0831V24.0842V24.0852V24.0863V24.0874V24.0885V24.0896V24.0907V24.0918V24.0929V24.094V24.0951V24.0962V24.0973V24.0984V24.0995V24.1006V24.1017V24.1028V24.1039V24.105V24.1061V24.1072V24.1083V24.1094V24.1105V24.1116V24.1127V24.1138V24.1149V24.116V24.1171V24.1182V24.1193V24.1204V24.1215V24.1226V24.1237V24.1248V24.1259V24.1271V24.1282V24.1293V24.1304V24.1315V24.1326V24.1337V24.1348V24.1359V24.137V24.1381V24.1392V24.1403V24.1414V24.1425V24.1437V24.1448V24.1459V24.147V24.1481V24.1492V24.1503V24.1514V24.1525V24.1536V24.1548V24.1559V24.157V24.1581V24.1592V24.1603V24.1614V24.1625V24.1637V24.1648V24.1659V24.167V24.1681V24.1692V24.1703V24.1715V24.1726V24.1737V24.1748V24.1759V24.177V24.1781V24.1793V24.1804V24.1815V24.1826V24.1837V24.1848V24.186V24.1871V24.1882V24.1893V24.1904V24.1915V24.1927V24.1938V24.1949V24.196V24.1971V24.1983V24.1994V24.2005V24.2016V24.2027V24.2039V24.205V24.2061V24.2072V24.2084V24.2095V24.2106V24.2117V24.2128V24.214V24.2151V24.2162V24.2173V24.2185V24.2196V24.2207V24.2218V24.2229V24.2241V24.2252V24.2263V24.2274V24.2286V24.2297V24.2308V24.2319V24.2331V24.2342V24.2353V24.2365V24.2376V24.2387V24.2398V24.241V24.2421V24.2432V24.2443V24.2455V24.2466V24.2477V24.2489V24.25V24.2511V24.2522V24.2534V24.2545V24.2556V24.2568V24.2579V24.259V24.2601V24.2613V24.2624V24.2635V24.2647V24.2658V24.2669V24.2681V24.2692V24.2703V24.2715V24.2726V24.2737V24.2749V24.276V24.2771V24.2783V24.2794V24.2805V24.2816V24.2828V24.2839V24.285V24.2862V24.2873V24.2885V24.2896V24.2907V24.2919V24.293V24.2941V24.2953V24.2964V24.2975V24.2987V24.2998V24.3009V24.3021V24.3032V24.3043V24.3055V24.3066V24.3078V24.3089V24.31V24.3112V24.3123V24.3134V24.3146V24.3157V24.3168V24.318V24.3191V24.3203V24.3214V24.3225V24.3237V24.3248V24.326V24.3271V24.3282V24.3294V24.3305V24.3316V24.3328V24.3339V24.3351V24.3362V24.3373V24.3385V24.3396V24.3408V24.3419V24.343V24.3442V24.3453V24.3465V24.3476V24.3487V24.3499V24.351V24.3522V24.3533V24.3545V24.3556V24.3567V24.3579V24.359V24.3602V24.3613V24.3624V24.3636V24.3647V24.3659V24.367V24.3682V24.3693V24.3704V24.3716V24.3727V24.3739V24.375V24.3762V24.3773V24.3784V24.3796V24.3807V24.3819V24.383V24.3842V24.3853V24.3864V24.3876V24.3887V24.3899V24.391V24.3922V24.3933V24.3945V24.3956V24.3967V24.3979V24.399V24.4002V24.4013V24.4025V24.4036V24.4048V24.4059V24.4071V24.4082V24.4093V24.4105V24.4116V24.4128V24.4139V24.4151V24.4162V24.4174V24.4185V24.4197V24.4208V24.422V24.4231V24.4242V24.4254V24.4265V24.4277V24.4288V24.43V24.4311V24.4323V24.4334V24.4346V24.4357V24.4369V24.438V24.4392V24.4403V24.4415V24.4426V24.4437V24.4449V24.446V24.4472V24.4483V24.4495V24.4506V24.4518V24.4529V24.4541V24.4552V24.4564V24.4575V24.4587V24.4598V24.461V24.4621V24.4633V24.4644V24.4656V24.4667V24.4679V24.469V24.4701V24.4713V24.4724V24.4736V24.4747V24.4759V24.477V24.4782V24.4793V24.4805V24.4816V24.4828V24.4839V24.4851V24.4862V24.4874V24.4885V24.4897V24.4908V24.492V24.4931V24.4943V24.4954V24.4966V24.4977V24.4989V24.5V24.5012V24.5023V24.5035V24.5046V24.5058V24.5069V24.5081V24.5092V24.5104V24.5115V24.5127V24.5138V24.515V24.5161V24.5173V24.5184V24.5195V24.5207V24.5218V24.523V24.5241V24.5253V24.5265V24.5276V24.5288V24.5299V24.5311V24.5322V24.5334V24.5345V24.5357V24.5369V24.538V24.5392V24.5403V24.5415V24.5427V24.5438V24.545V24.5462V24.5473V24.5485V24.5497V24.5508V24.552V24.5532V24.5543V24.5555V24.5567V24.5578V24.559V24.5602V24.5614V24.5625V24.5637V24.5649V24.5661V24.5673V24.5684V24.5696V24.5708V24.572V24.5732V24.5743V24.5755V24.5767V24.5779V24.5791V24.5803V24.5814V24.5826V24.5838V24.585V24.5862V24.5874V24.5886V24.5898V24.591V24.5922V24.5933V24.5945V24.5957V24.5969V24.5981V24.5993V24.6005V24.6017V24.6029V24.6041V24.6053V24.6065V24.6077V24.6089V24.6101V24.6113V24.6125V24.6137V24.615V24.6162V24.6174V24.6186V24.6198V24.621V24.6222V24.6234V24.6246V24.6258V24.6271V24.6283V24.6295V24.6307V24.6319V24.6331V24.6343V24.6356V24.6368V24.638V24.6392V24.6404V24.6417V24.6429V24.6441V24.6453V24.6466V24.6478V24.649V24.6502V24.6515V24.6527V24.6539V24.6551V24.6564V24.6576V24.6588V24.6601V24.6613V24.6625V24.6638V24.665V24.6662V24.6675V24.6687V24.6699V24.6712V24.6724V24.6737V24.6749V24.6761V24.6774V24.6786V24.6799V24.6811V24.6823V24.6836V24.6848V24.6861V24.6873V24.6886V24.6898V24.6911V24.6923V24.6936V24.6948V24.6961V24.6973V24.6986V24.6998V24.7011V24.7023V24.7036V24.7048V24.7061V24.7073V24.7086V24.7099V24.7111V24.7124V24.7136V24.7149V24.7161V24.7174V24.7187V24.7199V24.7212V24.7225V24.7237V24.725V24.7263V24.7275V24.7288V24.7301V24.7313V24.7326V24.7339V24.7351V24.7364V24.7377V24.7389V24.7402V24.7415V24.7428V24.744V24.7453V24.7466V24.7479V24.7491V24.7504V24.7517V24.753V24.7542V24.7555V24.7568V24.7581V24.7594V24.7607V24.7619V24.7632V24.7645V24.7658V24.7671V24.7684V24.7696V24.7709V24.7722V24.7735V24.7748V24.7761V24.7774V24.7787V24.78V24.7812V24.7825V24.7838V24.7851V24.7864V24.7877V24.789V24.7903V24.7916V24.7929V24.7942V24.7955V24.7968V24.7981V24.7994V24.8007V24.802V24.8033V24.8046V24.8059V24.8072V24.8085V24.8098V24.8111V24.8124V24.8137V24.815V24.8163V24.8176V24.819V24.8203V24.8216V24.8229V24.8242V24.8255V24.8268V24.8281V24.8294V24.8308V24.8321V24.8334V24.8347V24.836V24.8373V24.8387V24.84V24.8413V24.8426V24.8439V24.8452V24.8466V24.8479V24.8492V24.8505V24.8519V24.8532V24.8545V24.8558V24.8571V24.8585V24.8598V24.8611V24.8625V24.8638V24.8651V24.8664V24.8678V24.8691V24.8704V24.8718V24.8731V24.8744V24.8757V24.8771V24.8784V24.8797V24.8811V24.8824V24.8838V24.8851V24.8864V24.8878V24.8891V24.8904V24.8918V24.8931V24.8945V24.8958V24.8971V24.8985V24.8998V24.9012V24.9025V24.9039V24.9052V24.9065V24.9079V24.9092V24.9106V24.9119V24.9133V24.9146V24.916V24.9173V24.9187V24.92V24.9214V24.9227V24.9241V24.9254V24.9268V24.9281V24.9295V24.9308V24.9322V24.9335V24.9349V24.9363V24.9376V24.939V24.9403V24.9417V24.943V24.9444V24.9458V24.9471V24.9485V24.9498V24.9512V24.9526V24.9539V24.9553V24.9567V24.958V24.9594V24.9607V24.9621V24.9635V24.9648V24.9662V24.9676V24.9689V24.9703V24.9717V24.9731V24.9744V24.9758V24.9772V24.9785V24.9799V24.9813V24.9827V24.984V24.9854V24.9868V24.9881V24.9895V24.9909V24.9923V24.9937V24.995V24.9964V24.9978V24.9992V25.0005V25.0019V25.0033V25.0047V25.0061V25.0074V25.0088V25.0102V25.0116V25.013V25.0144V25.0157V25.0171V25.0185V25.0199V25.0213V25.0227V25.0241V25.0254V25.0268V25.0282V25.0296V25.031V25.0324V25.0338V25.0352V25.0366V25.0379V25.0393V25.0407V25.0421V25.0435V25.0449V25.0463V25.0477V25.0491V25.0505V25.0519V25.0533V25.0547V25.0561V25.0575V25.0589V25.0603V25.0617V25.0631V25.0645V25.0659V25.0673V25.0687V25.0701V25.0715V25.0729V25.0743V25.0757V25.0771V25.0785V25.0799V25.0813V25.0827V25.0841V25.0855V25.0869V25.0883V25.0897V25.0912V25.0926V25.094V25.0954V25.0968V25.0982V25.0996V25.101V25.1024V25.1038V25.1053V25.1067V25.1081V25.1095V25.1109V25.1123V25.1137V25.1152V25.1166V25.118V25.1194V25.1208V25.1222V25.1237V25.1251V25.1265V25.1279V25.1293V25.1308V25.1322V25.1336V25.135V25.1364V25.1379V25.1393V25.1407V25.1421V25.1435V25.145V25.1464V25.1478V25.1492V25.1507V25.1521V25.1535V25.155V25.1564V25.1578V25.1592V25.1607V25.1621V25.1635V25.1649V25.1664V25.1678V25.1692V25.1707V25.1721V25.1735V25.175V25.1764V25.1778V25.1793V25.1807V25.1821V25.1836V25.185V25.1864V25.1879V25.1893V25.1907C82.4011 25.7994 82.2546 26.3615 81.8625 26.7537C81.7558 26.8603 81.6366 26.9488 81.5072 27.0211H85.6109V26.776H85.3658C84.8265 26.776 84.4179 26.6452 84.1564 26.3837C83.8949 26.1223 83.7642 25.7137 83.7642 25.1744V20.0265C83.7642 19.4872 83.8949 19.0786 84.1564 18.8171C84.4179 18.5556 84.8265 18.4249 85.3658 18.4249H85.6109V18.1961L82.3977 19.7883ZM82.3977 19.7883L81.9011 19.8467L82.3977 19.7883ZM80.0544 26.7923V27.0211H80.0381V26.7923H80.0544Z" fill="white" stroke="white"/>
<path d="M94.2794 22.9615H94.2957V25.1908C94.2957 25.695 94.3963 26.1673 94.6538 26.5375H93.0746C93.3321 26.1673 93.4327 25.695 93.4327 25.1908V20.0428C93.4327 19.5315 93.3345 19.0753 93.0867 18.7125H94.2794V22.4615V22.9615ZM100.12 26.5375L98.3016 23.9739C98.4352 24.0296 98.5676 24.0798 98.6986 24.126C98.9361 24.2099 99.2065 24.2973 99.5148 24.3658L99.6127 24.5089L99.6188 24.5179L99.6253 24.5265C99.7238 24.6578 99.7918 24.7635 99.8522 24.8576C99.8754 24.8937 99.8975 24.928 99.9198 24.9615C99.9466 25.0017 99.972 25.0388 99.9969 25.0753C100.044 25.1445 100.09 25.2113 100.141 25.2923L100.141 25.2923L100.143 25.2958C100.383 25.6726 100.623 25.9987 100.847 26.2742C100.926 26.3713 101.001 26.4589 101.072 26.5375H100.12ZM100.761 21.6499C100.585 21.7485 100.344 21.8379 100.001 21.9329C100.023 21.9012 100.043 21.8686 100.063 21.835C100.3 21.4441 100.411 20.9573 100.411 20.4351C100.411 19.8266 100.257 19.2891 99.9185 18.8674C99.9598 18.8761 99.9997 18.8851 100.038 18.8945C100.503 19.0073 100.842 19.1968 101.094 19.4485C101.228 19.5831 101.34 19.7433 101.43 19.9491L101.43 19.9491L101.435 19.9601C101.517 20.136 101.552 20.3086 101.552 20.4841C101.552 20.9397 101.338 21.3277 100.762 21.6491L100.761 21.6499Z" fill="white" stroke="white"/>
<path d="M112.404 19.0997C112.273 18.9447 112.132 18.8036 111.982 18.6797H112.714V19.5178C112.621 19.3767 112.519 19.2392 112.407 19.1039L112.407 19.1039L112.404 19.0997ZM105.783 18.6797H107.011V22.6249V23.1249H107.06V26.5538H105.804C106.062 26.1822 106.164 25.7147 106.164 25.2071V20.0591C106.164 19.5245 106.057 19.0502 105.783 18.6797ZM112.205 26.3011C112.503 26.0491 112.761 25.7531 112.976 25.4195V26.5538H111.892C112 26.4774 112.105 26.3936 112.205 26.3011ZM109.355 22.7286C109.596 22.567 109.813 22.3564 110.001 22.0979V23.3452C109.981 23.3171 109.961 23.2895 109.941 23.2624L109.935 23.2539L109.929 23.2458C109.761 23.034 109.568 22.8625 109.355 22.7286Z" fill="white" stroke="white"/>
<path d="M122.568 19.6972C122.536 19.6481 122.503 19.6004 122.47 19.554C122.504 19.5399 122.536 19.5244 122.568 19.5077V19.6972ZM115.804 19.6074C115.812 19.5959 115.821 19.5845 115.83 19.5732C115.822 19.6376 115.819 19.7015 115.819 19.765C115.819 20.2003 115.993 20.5907 116.315 20.8934C116.462 21.0379 116.671 21.1784 116.896 21.2908C117.126 21.4059 117.417 21.5138 117.749 21.6019C118.073 21.7035 118.517 21.8184 119.059 21.9462C119.129 21.9692 119.197 21.9904 119.257 22.0067C119.292 22.016 119.351 22.0318 119.418 22.0404L119.687 22.1112L119.689 22.1116L120.178 22.2419L120.178 22.2419L120.183 22.2433C121.01 22.4542 121.6 22.6424 121.937 22.7893L121.937 22.7894L121.944 22.7923C122.285 22.9342 122.549 23.1101 122.753 23.3272L122.765 23.34L122.778 23.3519C122.939 23.5005 123.06 23.6695 123.145 23.8776L123.145 23.8776L123.15 23.8876C123.237 24.0872 123.287 24.3132 123.287 24.5534C123.287 24.7883 123.239 25.0166 123.13 25.2745C123.09 25.3702 123.045 25.4591 122.993 25.5424C122.995 25.5018 122.996 25.4609 122.996 25.4195C122.996 24.9352 122.794 24.5359 122.458 24.1998C122.287 24.0289 122.064 23.9013 121.886 23.8039L121.878 23.7997L121.87 23.7957C121.651 23.6863 121.398 23.5782 121.062 23.4719C121.02 23.4588 120.977 23.445 120.931 23.4305C120.644 23.3387 120.275 23.2212 119.808 23.1045L119.175 22.942C118.202 22.6825 117.535 22.4755 117.166 22.3373C116.736 22.1716 116.452 22.0448 116.283 21.9239L116.276 21.9192L116.269 21.9148C116.069 21.781 115.896 21.6219 115.75 21.4365C115.55 21.1722 115.462 20.9181 115.462 20.6312C115.462 20.2491 115.574 19.9131 115.804 19.6074ZM116.224 25.8286C116.006 25.8652 115.799 25.9402 115.609 26.0575V25.1422C115.682 25.2416 115.759 25.3391 115.841 25.4344C115.957 25.5698 116.085 25.7013 116.224 25.8286Z" fill="white" stroke="white"/>
<path d="M127.113 24.5379C127.265 25.095 127.472 25.5937 127.773 26.0341C127.496 25.8799 127.241 25.7015 127.008 25.4993C126.563 25.1136 126.215 24.676 125.97 24.1715C125.726 23.669 125.611 23.1555 125.611 22.6086C125.611 21.8973 125.823 21.2256 126.245 20.6002C126.635 20.0224 127.147 19.5425 127.786 19.1816C127.67 19.3549 127.567 19.5366 127.475 19.7212C127.271 20.1288 127.129 20.58 127.025 21.0657C126.917 21.5701 126.883 22.0823 126.883 22.625C126.883 23.3114 126.952 23.9457 127.113 24.5379ZM133.137 19.2507C133.112 19.2141 133.086 19.1779 133.06 19.1422C133.434 19.3496 133.773 19.6056 134.073 19.9061C134.452 20.2854 134.744 20.7233 134.949 21.1911C135.151 21.6517 135.25 22.1392 135.25 22.6086C135.25 23.3441 135.05 24.0145 134.633 24.6334C134.257 25.1912 133.764 25.6483 133.148 26.0045C133.328 25.7307 133.481 25.4239 133.605 25.0847C133.874 24.3499 134.011 23.5056 134.011 22.5432C134.011 21.9177 133.942 21.3211 133.8 20.755C133.657 20.1811 133.438 19.6826 133.137 19.2507Z" fill="white" stroke="white"/>
<path d="M146.322 26.5375L144.517 23.9801C144.646 24.0333 144.773 24.0815 144.899 24.126C145.137 24.2099 145.407 24.2973 145.715 24.3658L145.813 24.5089L145.82 24.5179L145.826 24.5265C145.924 24.6578 145.992 24.7635 146.053 24.8575C146.076 24.8936 146.098 24.928 146.121 24.9615C146.147 25.0017 146.173 25.0388 146.198 25.0753C146.245 25.1445 146.291 25.2113 146.341 25.2923L146.341 25.2923L146.344 25.2958C146.583 25.6726 146.824 25.9987 147.047 26.2742C147.126 26.3713 147.202 26.4589 147.273 26.5375H146.322ZM140.513 22.7067V22.9615V25.1908C140.513 25.695 140.613 26.1673 140.871 26.5375H139.275C139.533 26.1673 139.633 25.695 139.633 25.1908V20.0428C139.633 19.5315 139.535 19.0753 139.287 18.7125H140.513V22.2067V22.4615V22.7067ZM146.961 21.6499C146.793 21.7446 146.563 21.8308 146.242 21.9216C146.261 21.8935 146.279 21.8646 146.296 21.835C146.533 21.4441 146.644 20.9573 146.644 20.4351C146.644 19.8307 146.493 19.2963 146.159 18.8759C146.186 18.882 146.213 18.8882 146.239 18.8945C146.704 19.0073 147.043 19.1968 147.294 19.4485C147.429 19.5831 147.541 19.7433 147.631 19.9491L147.631 19.9491L147.636 19.9601C147.718 20.136 147.753 20.3086 147.753 20.4841C147.753 20.9397 147.539 21.3277 146.963 21.6491L146.961 21.6499Z" fill="white" stroke="white"/>
<path d="M159.671 19.5023C159.435 19.1802 159.174 18.9054 158.89 18.6797H159.977V19.9781C159.884 19.8161 159.783 19.659 159.674 19.5071L159.674 19.507L159.671 19.5023ZM154.881 18.6797H155.744V25.1907C155.744 25.7024 155.85 26.169 156.113 26.5374H154.512C154.776 26.1666 154.881 25.6984 154.881 25.1907V18.6797ZM150.615 18.6797H151.647C151.344 18.9333 151.07 19.2475 150.826 19.62C150.752 19.7314 150.682 19.8462 150.615 19.9646V18.6797Z" fill="white" stroke="white"/>
<path d="M167.022 23.6666C167.054 23.6461 167.087 23.6256 167.122 23.605C167.043 23.8331 167.004 24.0795 167.004 24.3409C167.004 24.6037 167.044 24.856 167.098 25.0907L167.101 25.1033L167.105 25.1157C167.18 25.3791 167.276 25.6095 167.392 25.8224C167.509 26.0375 167.669 26.2617 167.878 26.4523C167.944 26.5173 168.012 26.5783 168.083 26.6354C167.903 26.609 167.727 26.575 167.552 26.5342C167.109 26.4308 166.798 26.2898 166.571 26.1255L166.562 26.119L166.552 26.1128C166.155 25.8518 165.994 25.5437 165.994 25.1581C165.994 24.824 166.135 24.4701 166.472 24.119C166.648 23.9433 166.832 23.7892 167.022 23.6666ZM172.817 25.7809L172.695 25.6834L172.632 25.6252C172.205 25.2281 171.702 24.6495 171.103 23.8892C170.829 23.5225 170.627 23.2295 170.453 22.9756C170.448 22.9689 170.443 22.9622 170.439 22.9555C170.313 22.7535 170.187 22.5307 170.07 22.2962L169.928 21.9468C169.701 21.386 169.605 20.9112 169.605 20.5168C169.605 20.287 169.632 20.0743 169.683 19.8772C169.717 19.9695 169.757 20.0614 169.802 20.1521L169.802 20.1521L169.808 20.1637C169.952 20.434 170.21 20.8445 170.573 21.372L170.573 21.3721L170.578 21.3794L170.627 21.4486L170.588 21.4658L170.996 21.9648L171.053 22.0446L171.059 22.042L171.296 22.3314C171.685 22.835 172.061 23.2891 172.409 23.708C172.459 23.7689 172.509 23.829 172.558 23.8885C172.743 24.1192 173.032 24.44 173.397 24.8454C173.443 24.8964 173.49 24.9487 173.538 25.0023L173.912 25.4169L173.941 25.3843C174.29 25.7469 174.624 26.0534 174.953 26.2522C175.196 26.4095 175.449 26.5199 175.704 26.5813C175.441 26.6737 175.171 26.7173 174.891 26.7173C174.528 26.7173 174.207 26.6473 173.952 26.5325L173.952 26.5324L173.944 26.5289C173.665 26.4096 173.3 26.1675 172.817 25.7809ZM175.471 21.9617C175.47 21.9624 175.47 21.9631 175.469 21.9638C175.434 21.8727 175.39 21.7856 175.338 21.7032H175.73C175.644 21.7798 175.562 21.8605 175.485 21.9454L175.478 21.9534L175.471 21.9617Z" fill="white" stroke="white"/>
<path d="M185.112 19.7556L185.115 19.7847V19.814V19.8154V19.8167V19.8181V19.8194V19.8208V19.8222V19.8235V19.8249V19.8263V19.8277V19.8291V19.8305V19.8319V19.8333V19.8347V19.8361V19.8376V19.839V19.8404V19.8419V19.8433V19.8448V19.8462V19.8477V19.8492V19.8506V19.8521V19.8536V19.8551V19.8566V19.8581V19.8596V19.8611V19.8626V19.8641V19.8657V19.8672V19.8687V19.8703V19.8718V19.8734V19.8749V19.8765V19.8781V19.8796V19.8812V19.8828V19.8844V19.886V19.8876V19.8892V19.8908V19.8924V19.894V19.8957V19.8973V19.8989V19.9006V19.9022V19.9039V19.9055V19.9072V19.9089V19.9105V19.9122V19.9139V19.9156V19.9173V19.919V19.9207V19.9224V19.9241V19.9258V19.9276V19.9293V19.931V19.9328V19.9345V19.9363V19.938V19.9398V19.9416V19.9433V19.9451V19.9469V19.9487V19.9505V19.9523V19.9541V19.9559V19.9577V19.9595V19.9613V19.9632V19.965V19.9668V19.9687V19.9705V19.9724V19.9743V19.9761V19.978V19.9799V19.9818V19.9836V19.9855V19.9874V19.9893V19.9913V19.9932V19.9951V19.997V19.9989V20.0009V20.0028V20.0048V20.0067V20.0087V20.0106V20.0126V20.0146V20.0165V20.0185V20.0205V20.0225V20.0245V20.0265V20.0285V20.0305V20.0325V20.0346V20.0366V20.0386V20.0407V20.0427V20.0448V20.0468V20.0489V20.051V20.053V20.0551V20.0572V20.0593V20.0614V20.0635V20.0656V20.0677V20.0698V20.0719V20.074V20.0762V20.0783V20.0804V20.0826V20.0847V20.0869V20.089V20.0912V20.0934V20.0955V20.0977V20.0999V20.1021V20.1043V20.1065V20.1087V20.1109V20.1131V20.1154V20.1176V20.1198V20.1221V20.1243V20.1266V20.1288V20.1311V20.1333V20.1356V20.1379V20.1402V20.1424V20.1447V20.147V20.1493V20.1516V20.154V20.1563V20.1586V20.1609V20.1633V20.1656V20.1679V20.1703V20.1726V20.175V20.1774V20.1797V20.1821V20.1845V20.1869V20.1893V20.1917V20.1941V20.1965V20.1989V20.2013V20.2037V20.2061V20.2086V20.211V20.2135V20.2159V20.2184V20.2208V20.2233V20.2258V20.2282V20.2307V20.2332V20.2357V20.2382V20.2407V20.2432V20.2457V20.2482V20.2507V20.2533V20.2558V20.2583V20.2609V20.2634V20.266V20.2685V20.2711V20.2737V20.2762V20.2788V20.2814V20.284V20.2866V20.2892V20.2918V20.2944V20.297V20.2996V20.3023V20.3049V20.3075V20.3102V20.3128V20.3155V20.3181V20.3208V20.3235V20.3261V20.3288V20.3315V20.3342V20.3369V20.3396V20.3423V20.345V20.3477V20.3504V20.3532V20.3559V20.3586V20.3614V20.3641V20.3669V20.3696V20.3724V20.3751V20.3779V20.3807V20.3835V20.3863V20.3891V20.3919V20.3947V20.3975V20.4003V20.4031V20.4059V20.4088V20.4116V20.4144V20.4173V20.4201V20.423V20.4259V20.4287V20.4316V20.4345V20.4374V20.4403V20.4431V20.446V20.4489V20.4519V20.4548V20.4577V20.4606V20.4635V20.4665V20.4694V20.4724V20.4753V20.4783V20.4812V20.4842V20.4872V20.4901V20.4931V20.4961V20.4991V20.5021V20.5051V20.5081V20.5111V20.5142V20.5172V20.5202V20.5232V20.5263V20.5293V20.5324V20.5354V20.5385V20.5416V20.5446V20.5477V20.5508V20.5539V20.557V20.5601V20.5632V20.5663V20.5694V20.5725V20.5756V20.5788V20.5819V20.585V20.5882V20.5913V20.5945V20.5976V20.6008V20.604V20.6072V20.6103V20.6135V20.6167V20.6199V20.6231V20.6263V20.6295V20.6328V20.636V20.6392V20.6424V20.6457V20.6489V20.6522V20.6554V20.6587V20.662V20.6652V20.6685V20.6718V20.6751V20.6784V20.6817V20.685V20.6883V20.6916V20.6949V20.6982V20.7015V20.7049V20.7082V20.7116V20.7149V20.7183V20.7216V20.725V20.7284V20.7317V20.7351V20.7385V20.7419V20.7453V20.7487V20.7521V20.7555V20.7589V20.7623V20.7658V20.7692V20.7726V20.7761V20.7795V20.783V20.7864V20.7899V20.7934V20.7969V20.8003V20.8038V20.8073V20.8108V20.8143V20.8178V20.8213V20.8248V20.8284V20.8319V20.8354V20.839V20.8425V20.846V20.8496V20.8532V20.8567V20.8603V20.8639V20.8674V20.871V20.8746V20.8782V20.8818V20.8854V20.889V20.8926V20.8963V20.8999V20.9035V20.9072V20.9108V20.9145V20.9181V20.9218V20.9254V20.9291V20.9328V20.9364V20.9401V20.9438V20.9475V20.9512V20.9549V20.9586V20.9623V20.9661V20.9698V20.9735V20.9773V20.981V20.9847V20.9885V20.9923V20.996V20.9998V21.0036V21.0073V21.0111V21.0149V21.0187V21.0225V21.0263V21.0301V21.0339V21.0378V21.0416V21.0454V21.0492V21.0531V21.0569V21.0608V21.0646V21.0685V21.0724V21.0762V21.0801V21.084V21.0879V21.0918V21.0957V21.0996V21.1035V21.1074V21.1113V21.1153V21.1192V21.1231V21.1271V21.131V21.135V21.1389V21.1429V21.1468V21.1508V21.1548V21.1588V21.1628V21.1668V21.1708V21.1748V21.1788V21.1828V21.1868V21.1908V21.1948V21.1989V21.2029V21.2069V21.2109V21.2149V21.2189V21.223V21.227V21.231V21.235V21.239V21.243V21.247V21.251V21.255V21.259V21.263V21.267V21.271V21.275V21.279V21.283V21.287V21.291V21.295V21.299V21.303V21.3069V21.3109V21.3149V21.3189V21.3229V21.3269V21.3308V21.3348V21.3388V21.3428V21.3468V21.3507V21.3547V21.3587V21.3627V21.3666V21.3706V21.3746V21.3785V21.3825V21.3865V21.3904V21.3944V21.3983V21.4023V21.4063V21.4102V21.4142V21.4181V21.4221V21.426V21.43V21.4339V21.4379V21.4418V21.4458V21.4497V21.4537V21.4576V21.4616V21.4655V21.4694V21.4734V21.4773V21.4812V21.4852V21.4891V21.493V21.497V21.5009V21.5048V21.5088V21.5127V21.5166V21.5205V21.5245V21.5284V21.5323V21.5362V21.5401V21.544V21.548V21.5519V21.5558V21.5597V21.5636V21.5675V21.5714V21.5753V21.5792V21.5831V21.587V21.5909V21.5948V21.5987V21.6026V21.6065V21.6104V21.6143V21.6182V21.6221V21.626V21.6299V21.6338V21.6376V21.6415V21.6454V21.6493V21.6532V21.657V21.6609V21.6648V21.6687V21.6725V21.6764V21.6803V21.6842V21.688V21.6919V21.6958V21.6996V21.7035V21.7073V21.7112V21.7151V21.7189V21.7228V21.7266V21.7305V21.7343V21.7382V21.742V21.7459V21.7497V21.7536V21.7574V21.7613V21.7651V21.769V21.7728V21.7766V21.7805V21.7843V21.7881V21.792V21.7958V21.7996V21.8035V21.8073V21.8111V21.8149V21.8188V21.8226V21.8264V21.8302V21.834V21.8378V21.8417V21.8455V21.8493V21.8531V21.8569V21.8607V21.8645V21.8683V21.8721V21.8759V21.8797V21.8835V21.8873V21.8911V21.8949V21.8987V21.9025V21.9063V21.9101V21.9139V21.9177V21.9215V21.9252V21.929V21.9328V21.9366V21.9404V21.9441V21.9479V21.9517V21.9555V21.9592V21.963V21.9668V21.9705V21.9743V21.9781V21.9818V21.9856V21.9894V21.9931V21.9969V22.0006V22.0044V22.0081V22.0119V22.0156V22.0194V22.0231V22.0269V22.0306V22.0344V22.0381V22.0419V22.0456V22.0493V22.0531V22.0568V22.0605V22.0643V22.068V22.0717V22.0754V22.0792V22.0829V22.0866V22.0903V22.0941V22.0978V22.1015V22.1052V22.1089V22.1126V22.1164V22.1201V22.1238V22.1275V22.1312V22.1349V22.1386V22.1423V22.146V22.1497V22.1534V22.1571V22.1608V22.1645V22.1682V22.1718V22.1755V22.1792V22.1829V22.1866V22.1903V22.1939V22.1976V22.2013V22.205V22.2086V22.2123V22.216V22.2197V22.2233V22.227V22.2307V22.2343V22.238V22.2416V22.2453V22.249V22.2526V22.2563V22.2599V22.2636V22.2672V22.2709V22.2745V22.2782V22.2818V22.2854V22.2891V22.2927V22.2964V22.3V22.3036V22.3073V22.3109V22.3145V22.3182V22.3218V22.3254V22.329V22.3327V22.3363V22.3399V22.3435V22.3471V22.3507V22.3544V22.358V22.3616V22.3652V22.3688V22.3724V22.376V22.3796V22.3832V22.3868V22.3904V22.394V22.3976V22.4012V22.4048V22.4083V22.4119V22.4155V22.4191V22.4227V22.4263V22.4298V22.4334V22.437V22.4406V22.4441V22.4477V22.4513V22.4549V22.4584V22.462V22.4655V22.4691V22.4727V22.4762V22.4798V22.4833V22.4869V22.4904V22.494V22.4975V22.5011V22.5046V22.5082V22.5117V22.5153V22.5188V22.5223V22.5259V22.5294V22.5329V22.5365V22.54V22.5435V22.5471V22.5506V22.5541V22.5576V22.5611V22.5647V22.5682V22.5717V22.5752V22.5787V22.5822V22.5857V22.5892V22.5927V22.5962V22.5997V22.6032V22.6067V22.6102V22.6137V22.6172V22.6207V22.6242V22.6277V22.6312V22.6347V22.6381V22.6416V22.6451V22.6486V22.652V22.6555V22.659V22.6625V22.6659V22.6694V22.6729V22.6763V22.6798V22.6833V22.6867V22.6902V22.6936V22.6971V22.7005V22.704V22.7074V22.7109V22.7143V22.7178V22.7212V22.7246V22.7281V22.7315V22.735V22.7384V22.7418V22.7452V22.7487V22.7521V22.7555V22.7589V22.7624V22.7658V22.7692V22.7726V22.776V22.7794V22.7829V22.7863V22.7897V22.7931V22.7965V22.7999V22.8033V22.8067V22.8101V22.8135V22.8169V22.8203V22.8236V22.827V22.8304V22.8338V22.8372V22.8406V22.8439V22.8473V22.8507V22.8541V22.8574V22.8608V22.8642V22.8675V22.8709V22.8743V22.8776V22.881V22.8843V22.8877V22.8911V22.8944V22.8978V22.9011V22.9045V22.9078V22.9111V22.9145V22.9178V22.9212V22.9245V22.9278V22.9312V22.9345V22.9378V22.9411V22.9445V22.9478V22.9511V22.9544V22.9578V22.9611V22.9644V22.9677V22.971V22.9743V22.9776V22.9809V22.9842V22.9875V22.9908V22.9941V22.9974V23.0007V23.004V23.0073V23.0106V23.0139V23.0172V23.0204V23.0237V23.027V23.0303V23.0336V23.0368V23.0401V23.0434V23.0466V23.0499V23.0532V23.0564V23.0597V23.0629V23.0662V23.0696V23.0729V23.0762V23.0796V23.0829V23.0862V23.0896V23.0929V23.0962V23.0995V23.1029V23.1062V23.1095V23.1128V23.1161V23.1194V23.1227V23.126V23.1293V23.1326V23.1358V23.1391V23.1424V23.1457V23.1489V23.1522V23.1555V23.1587V23.162V23.1652V23.1685V23.1717V23.175V23.1782V23.1814V23.1847V23.1879V23.1911V23.1944V23.1976V23.2008V23.204V23.2072V23.2104V23.2136V23.2168V23.22V23.2232V23.2264V23.2296V23.2328V23.2359V23.2391V23.2423V23.2454V23.2486V23.2518V23.2549V23.2581V23.2612V23.2644V23.2675V23.2707V23.2738V23.2769V23.2801V23.2832V23.2863V23.2894V23.2926V23.2957V23.2988V23.3019V23.305V23.3081V23.3112V23.3143V23.3174V23.3205V23.3235V23.3266V23.3297V23.3328V23.3359V23.3389V23.342V23.345V23.3481V23.3512V23.3542V23.3572V23.3603V23.3633V23.3664V23.3694V23.3724V23.3755V23.3785V23.3815V23.3845V23.3875V23.3905V23.3935V23.3966V23.3996V23.4025V23.4055V23.4085V23.4115V23.4145V23.4175V23.4205V23.4234V23.4264V23.4294V23.4323V23.4353V23.4382V23.4412V23.4441V23.4471V23.45V23.453V23.4559V23.4588V23.4618V23.4647V23.4676V23.4705V23.4735V23.4764V23.4793V23.4822V23.4851V23.488V23.4909V23.4938V23.4967V23.4995V23.5024V23.5053V23.5082V23.511V23.5139V23.5168V23.5196V23.5225V23.5254V23.5282V23.5311V23.5339V23.5367V23.5396V23.5424V23.5452V23.5481V23.5509V23.5537V23.5565V23.5594V23.5622V23.565V23.5678V23.5706V23.5734V23.5762V23.579V23.5817V23.5845V23.5873V23.5901V23.5929V23.5956V23.5984V23.6012V23.6039V23.6067V23.6094V23.6122V23.6149V23.6177V23.6204V23.6232V23.6259V23.6286V23.6313V23.6341V23.6368V23.6395V23.6422V23.6449V23.6476V23.6503V23.653V23.6557V23.6584V23.6611V23.6638V23.6665V23.6692V23.6719V23.6745V23.6772V23.6799V23.6825V23.6852V23.6878V23.6905V23.6931V23.6958V23.6984V23.7011V23.7037V23.7063V23.709V23.7116V23.7142V23.7168V23.7195V23.7221V23.7247V23.7273V23.7299V23.7325V23.7351V23.7377V23.7403V23.7428V23.7454V23.748V23.7506V23.7532V23.7557V23.7583V23.7608V23.7634V23.766V23.7685V23.7711V23.7736V23.7762V23.7787V23.7812V23.7838V23.7863V23.7888V23.7913V23.7938V23.7964V23.7989V23.8014V23.8039V23.8064V23.8089V23.8114V23.8139V23.8164V23.8188V23.8213V23.8238V23.8263V23.8288V23.8312V23.8337V23.8361V23.8386V23.8411V23.8435V23.846V23.8484V23.8508V23.8533V23.8557V23.8581V23.8606V23.863V23.8654V23.8678V23.8702V23.8727V23.8751V23.8775V23.8799V23.8823V23.8847V23.8871V23.8894V23.8918V23.8942V23.8966V23.899V23.9013V23.9037V23.9061V23.9084V23.9108V23.9131V23.9155V23.9178V23.9202V23.9225V23.9248V23.9272V23.9295V23.9318V23.9342V23.9365V23.9388V23.9411V23.9434V23.9457V23.948V23.9503V23.9526V23.9549V23.9572V23.9595V23.9618V23.964V23.9663V23.9686V23.9709V23.9731V23.9754V23.9776V23.9799V23.9822V23.9844V23.9867V23.9889V23.9911V23.9934V23.9956V23.9978V24.0001V24.0023V24.0045V24.0067V24.0089V24.0111V24.0133V24.0155V24.0177V24.0199V24.0221V24.0243V24.0265V24.0287V24.0309V24.033V24.0352V24.0374V24.0395V24.0417V24.0439V24.046V24.0482V24.0503V24.0525V24.0546V24.0567V24.0589V24.061V24.0631V24.0653V24.0674V24.0695V24.0716V24.0737V24.0758V24.0779V24.08V24.0821V24.0842V24.0863V24.0884V24.0905V24.0926V24.0946V24.0967V24.0988V24.1009V24.1029V24.105V24.107V24.1091V24.1111V24.1132V24.1152V24.1173V24.1193V24.1213V24.1234V24.1254V24.1274V24.1294V24.1315V24.1335V24.1355V24.1375V24.1395V24.1415V24.1435V24.1455V24.1475V24.1495V24.1514V24.1534V24.1554V24.1574V24.1593V24.1613V24.1633V24.1652V24.1672V24.1691V24.1711V24.173V24.175V24.1769V24.1788V24.1808V24.1827V24.1846V24.1866V24.1885V24.1904V24.1923V24.1942V24.1961V24.198V24.1999V24.2018V24.2037V24.2056V24.2075V24.2094V24.2112V24.2131V24.215V24.2169V24.2187V24.2206V24.2224V24.2243V24.2262V24.228V24.2298V24.2317V24.2335V24.2354V24.2372V24.239V24.2408V24.2427V24.2445V24.2463V24.2481V24.2499V24.2517V24.2535V24.2553V24.2571V24.2589V24.2607V24.2625V24.2643V24.266V24.2678V24.2696V24.2714V24.2731V24.2749V24.2766V24.2784V24.2801V24.2819V24.2836V24.2854V24.2871V24.2888V24.2906V24.2923V24.294V24.2957V24.2975V24.2992V24.3009V24.3026V24.3043V24.306V24.3077V24.3094V24.3111V24.3128V24.3144V24.3161V24.3178V24.3195V24.3211V24.3228V24.3245V24.3261V24.3278V24.3294V24.3311V24.3327V24.3344V24.336V24.3377V24.3393V24.3409V24.3426V24.3442V24.3458V24.3474V24.3491V24.3507V24.3523V24.3539V24.3556V24.3572V24.3588V24.3605V24.3621V24.3637V24.3653V24.367V24.3686V24.3702V24.3719V24.3735V24.3751V24.3767V24.3784V24.38V24.3816V24.3832V24.3849V24.3865V24.3881V24.3898V24.3914V24.393V24.3946V24.3963V24.3979V24.3995V24.4012V24.4028V24.4044V24.406V24.4077V24.4093V24.4109V24.4126V24.4142V24.4158V24.4174V24.4191V24.4207V24.4223V24.424V24.4256V24.4272V24.4288V24.4305V24.4321V24.4337V24.4354V24.437V24.4386V24.4403V24.4419V24.4435V24.4451V24.4468V24.4484V24.45V24.4517V24.4533V24.4549V24.4565V24.4582V24.4598V24.4614V24.4631V24.4647V24.4663V24.468V24.4696V24.4712V24.4728V24.4745V24.4761V24.4777V24.4794V24.481V24.4826V24.4843V24.4859V24.4875V24.4892V24.4908V24.4924V24.494V24.4957V24.4973V24.4989V24.5006V24.5022V24.5038V24.5055V24.5071V24.5087V24.5104V24.512V24.5136V24.5153V24.5169V24.5185V24.5202V24.5218V24.5234V24.525V24.5267V24.5283V24.5299V24.5316V24.5332V24.5348V24.5365V24.5381V24.5397V24.5414V24.543V24.5446V24.5463V24.5479V24.5495V24.5512V24.5528V24.5544V24.5561V24.5577V24.5594V24.561V24.5626V24.5643V24.5659V24.5675V24.5692V24.5708V24.5724V24.5741V24.5757V24.5773V24.579V24.5806V24.5822V24.5839V24.5855V24.5872V24.5888V24.5904V24.5921V24.5937V24.5953V24.597V24.5986V24.6002V24.6019V24.6035V24.6052V24.6068V24.6084V24.6101V24.6117V24.6133V24.615V24.6166V24.6183V24.6199V24.6215V24.6232V24.6248V24.6265V24.6281V24.6297V24.6314V24.633V24.6347V24.6363V24.6379V24.6396V24.6412V24.6429V24.6445V24.6461V24.6478V24.6494V24.6511V24.6527V24.6543V24.656V24.6576V24.6593V24.6609V24.6625V24.6642V24.6658V24.6675V24.6691V24.6708V24.6724V24.674V24.6757V24.6773V24.679V24.6806V24.6823V24.6839V24.6855V24.6872V24.6888V24.6905V24.6921V24.6938V24.6954V24.6971V24.6987V24.7004V24.702V24.7036V24.7053V24.7069V24.7086V24.7102V24.7119V24.7135V24.7152V24.7168V24.7185V24.7201V24.7218V24.7234V24.7251V24.7267V24.7284V24.73V24.7316V24.7333V24.7349V24.7366V24.7382V24.7399V24.7415V24.7432V24.7448V24.7465V24.7481V24.7498V24.7514V24.7531V24.7547V24.7564V24.7581V24.7597V24.7614V24.763V24.7647V24.7663V24.768V24.7696V24.7713V24.7729V24.7746V24.7762V24.7779V24.7795V24.7812V24.7828V24.7845V24.7862V24.7878V24.7895V24.7911V24.7928V24.7944V24.7961V24.7977V24.7994V24.8011V24.8027V24.8044V24.806V24.8077V24.8093V24.811V24.8127V24.8143V24.816V24.8176V24.8193V24.821V24.8226V24.8243V24.8259V24.8276V24.8293V24.8309V24.8326V24.8342V24.8359V24.8376V24.8392V24.8409V24.8425V24.8442V24.8459V24.8475V24.8492V24.8509V24.8525V24.8542V24.8558V24.8575V24.8592V24.8608V24.8625V24.8642V24.8658V24.8675V24.8692V24.8708V24.8725V24.8742V24.8758V24.8775V24.8792V24.8808V24.8825V24.8842V24.8858V24.8875V24.8892V24.8908V24.8925V24.8942V24.8958V24.8975V24.8992V24.9009V24.9025V24.9042V24.9059V24.9075V24.9092V24.9109V24.9126V24.9142V24.9159V24.9176V24.9192V24.9209V24.9226V24.9243V24.9259V24.9276V24.9293V24.931V24.9326V24.9343V24.936V24.9377V24.9393V24.941V24.9427V24.9444V24.9461V24.9477V24.9494V24.9511V24.9528V24.9544V24.9561V24.9578V24.9595V24.9612V24.9628V24.9645V24.9662V24.9679V24.9696V24.9712V24.9729V24.9746V24.9763V24.978V24.9797V24.9813V24.983V24.9847V24.9864V24.9881V24.9898V24.9914V24.9931V24.9948V24.9965V24.9982V24.9999V25.0016V25.0032V25.0049V25.0066V25.0083V25.01V25.0117V25.0134V25.0151V25.0167V25.0184V25.0201V25.0218V25.0235V25.0252V25.0269V25.0286V25.0303V25.032V25.0337V25.0353V25.037V25.0387V25.0404V25.0421V25.0438V25.0455V25.0472V25.0489V25.0506V25.0523V25.054V25.0557V25.0574V25.0591V25.0608V25.0625V25.0642V25.0659V25.0676V25.0693V25.071V25.0727V25.0744V25.0761V25.0778V25.0795V25.0812V25.0829V25.0846V25.0863V25.088V25.0897V25.0914V25.0931V25.0948V25.0965V25.0982V25.0999V25.1016V25.1033V25.105V25.1067V25.1084V25.1101V25.1118V25.1135V25.1153V25.117V25.1187V25.1204V25.1221V25.1238V25.1255V25.1272V25.1289V25.1306V25.1323V25.1341V25.1358V25.1375V25.1392V25.1409V25.1426V25.1443V25.1461V25.1478V25.1495V25.1512V25.1529V25.1546V25.1563V25.1581V25.1598V25.1615V25.1632V25.1649V25.1666V25.1684V25.1701V25.1718V25.1735V25.1752V25.177V25.1787V25.1804V25.1821V25.1838V25.1856V25.1873V25.189V25.1907C185.115 25.7994 184.968 26.3615 184.576 26.7537C184.47 26.8603 184.35 26.9488 184.221 27.0211H188.308V26.776H188.112C187.573 26.776 187.181 26.6452 186.903 26.3837C186.625 26.1223 186.494 25.7137 186.494 25.1744V22.6576M185.112 19.7556L188.276 18.1961V18.4249H188.08C187.54 18.4249 187.132 18.5556 186.87 18.8171C186.609 19.0786 186.478 19.4872 186.478 20.0265V22.1576H185.994V22.3962H185.978V22.8962H186.478V22.6576H186.494M185.112 19.7556L184.615 19.814L185.112 19.7556ZM186.494 22.6576H191.25V22.3962M186.494 22.6576V22.3962H191.25M191.25 22.3962H191.266V22.1576H191.766V22.6576H191.75V22.8962H191.266V25.1744C191.266 25.7137 191.136 26.1223 190.874 26.3837C190.613 26.6452 190.204 26.776 189.665 26.776H189.485V27.0211H195.009V26.776H194.747C194.208 26.776 193.816 26.6452 193.538 26.3837C193.26 26.1223 193.129 25.7137 193.129 25.1744V20.0265C193.129 19.4872 193.26 19.0786 193.522 18.8171C193.783 18.5556 194.192 18.4249 194.731 18.4249H194.993V18.1961H189.469V18.4249H189.648C190.188 18.4249 190.596 18.5556 190.858 18.8171C191.119 19.0786 191.25 19.4708 191.25 20.0265V22.3962Z" fill="white" stroke="white"/>
<path d="M198.219 24.5379C198.371 25.095 198.578 25.5937 198.88 26.0341C198.602 25.8799 198.347 25.7015 198.114 25.4993C197.669 25.1136 197.321 24.676 197.076 24.1715C196.832 23.669 196.718 23.1555 196.718 22.6086C196.718 21.8973 196.93 21.2256 197.351 20.6002C197.741 20.0224 198.253 19.5425 198.892 19.1816C198.776 19.3549 198.674 19.5366 198.581 19.7212C198.378 20.1288 198.235 20.58 198.131 21.0657C198.023 21.5701 197.989 22.0823 197.989 22.625C197.989 23.3114 198.058 23.9457 198.219 24.5379ZM204.244 19.2507C204.218 19.2141 204.193 19.1779 204.166 19.1422C204.54 19.3496 204.879 19.6056 205.18 19.9061C205.559 20.2854 205.851 20.7233 206.056 21.1911C206.257 21.6517 206.357 22.1392 206.357 22.6086C206.357 23.3441 206.157 24.0145 205.74 24.6334C205.363 25.1912 204.871 25.6483 204.254 26.0045C204.435 25.7307 204.587 25.4239 204.712 25.0847C204.98 24.3499 205.118 23.5056 205.118 22.5432C205.118 21.9177 205.048 21.3211 204.907 20.755C204.763 20.1811 204.544 19.6826 204.244 19.2507Z" fill="white" stroke="white"/>
<path d="M217.802 19.5023C217.566 19.1802 217.305 18.9054 217.021 18.6797H218.108V19.9781C218.014 19.8161 217.914 19.659 217.805 19.5071L217.805 19.507L217.802 19.5023ZM213.012 18.6797H213.875V25.1907C213.875 25.7024 213.981 26.169 214.244 26.5374H212.643C212.907 26.1666 213.012 25.6984 213.012 25.1907V18.6797ZM208.746 18.6797H209.778C209.475 18.9333 209.201 19.2475 208.957 19.6199C208.883 19.7314 208.813 19.8462 208.746 19.9646V18.6797Z" fill="white" stroke="white"/>
<path d="M226.207 20.7323V20.3304H225.978V19.8304M226.207 20.7323L225.357 21.7261L225.707 21.9625M226.207 20.7323L225.831 20.6311M226.207 20.7323V20.7337L225.831 20.6311M225.978 19.8304L226.207 19.863V19.8304H225.978ZM225.978 19.8304C225.929 20.1736 225.88 20.4514 225.831 20.6311M225.831 20.6311C225.793 20.7703 225.752 20.9025 225.707 21.0283V21.9625M225.707 21.9625L225.771 22.006C225.771 22.0064 225.771 22.0068 225.77 22.0072L225.707 21.9655V21.9625ZM228.109 19.0997C227.979 18.9447 227.838 18.8036 227.688 18.6797H228.42V19.5178C228.327 19.3767 228.224 19.2392 228.113 19.1039L228.113 19.1039L228.109 19.0997ZM221.489 18.6797H222.716V22.6249V23.1249H222.765V26.5538H221.51C221.767 26.1822 221.869 25.7147 221.869 25.2071V20.0591C221.869 19.5246 221.762 19.0502 221.489 18.6797ZM227.911 26.3011C228.209 26.0491 228.467 25.7531 228.681 25.4195V26.5538H227.598C227.705 26.4774 227.81 26.3935 227.911 26.3011ZM225.06 22.7286C225.302 22.567 225.518 22.3564 225.707 22.0978V23.3452C225.687 23.3171 225.667 23.2895 225.647 23.2624L225.641 23.2539L225.634 23.2458C225.466 23.034 225.274 22.8625 225.06 22.7286Z" fill="white" stroke="white"/>
<path d="M232.172 18.6797H233.784C233.535 19.0474 233.437 19.5133 233.437 20.0101V26.5211H232.181C232.439 26.1495 232.541 25.682 232.541 25.1744V20.0265C232.541 19.5148 232.435 19.0482 232.172 18.6797ZM239.445 25.2403C239.464 25.2105 239.482 25.1797 239.5 25.1482V26.5211H238.372C238.577 26.3584 238.763 26.1726 238.933 25.9649L238.933 25.965L238.939 25.9572C239.13 25.7133 239.287 25.4875 239.44 25.2487L239.44 25.2487L239.445 25.2403Z" fill="white" stroke="white"/>
</svg>
