<svg width="240" height="54" viewBox="0 0 240 54" fill="none" xmlns="http://www.w3.org/2000/svg">
<path d="M36.5077 28.4102C36.4324 29.0745 36.3635 29.7451 36.282 30.4095C35.837 34.0571 34.6024 37.4164 32.672 40.5376C30.7354 43.6588 28.2723 46.3224 25.4206 48.61C23.415 50.2208 21.3029 51.6999 19.2409 53.2416C18.9025 53.4923 18.5641 53.743 18.2256 54C16.9784 53.0975 15.7375 52.2013 14.4965 51.3113C12.0648 49.5689 9.75209 47.6762 7.68384 45.5077C4.36838 42.023 1.89276 38.0432 0.777158 33.3238C0.432451 31.8572 0.300836 30.3343 0.0689419 28.8363C0.0501397 28.7235 0.0188022 28.6107 0 28.4916V25.0759C0.0250696 24.9756 0.0626745 24.8753 0.0689419 24.7751C0.206825 22.9638 0.545265 21.1964 1.078 19.4603C2.70752 14.1581 5.8663 9.87117 10.0153 6.30501C12.0648 4.54387 14.296 2.99582 16.4394 1.34749C17.0223 0.902507 17.5989 0.444986 18.1818 0H18.2632C18.3259 0.0626741 18.3886 0.131616 18.4575 0.181755C20.4318 1.63579 22.4373 3.0585 24.3865 4.55014C27.3572 6.83148 29.9833 9.45752 32.0891 12.5787C34.5585 16.2389 36.0188 20.2563 36.376 24.6623C36.4199 25.2263 36.4701 25.7841 36.5202 26.3482V28.4102H36.5077ZM18.2256 52.1448C18.9526 51.6246 19.6421 51.1107 20.344 50.6219C23.415 48.4659 26.3607 46.1783 28.805 43.3015C31.9826 39.5662 33.9819 35.3169 34.6149 30.4345C35.0536 27.0627 34.8468 23.7347 33.9944 20.4506C32.8099 15.9255 30.3844 12.1274 27.0877 8.84958C24.8879 6.65599 22.3997 4.81964 19.8677 3.04596C19.3099 2.65738 18.7646 2.24373 18.2256 1.85515C17.6678 2.2688 17.1539 2.65738 16.6212 3.03343C13.7883 5.03273 11.0181 7.10097 8.63022 9.64554C6.29248 12.14 4.43733 14.9415 3.22772 18.1441C1.57939 22.5188 1.28482 27.0188 2.06824 31.594C2.68245 35.1852 4.09889 38.4568 6.21727 41.4276C8.42967 44.5299 11.2187 47.0432 14.2709 49.2869C15.587 50.2521 16.9095 51.1922 18.2256 52.1448Z" fill="#610C21"/>
<path d="M18.3574 4.0174C20.4131 5.70333 22.544 7.32032 24.5245 9.10653C27.583 11.8579 29.9208 15.142 31.2871 19.0654C32.3024 21.9798 32.7098 24.9819 32.6346 28.0592C32.4779 34.3705 30.1151 39.7228 25.6715 44.1852C23.9354 45.9276 22.0113 47.4255 19.9932 48.8106C19.4918 49.1553 18.9904 49.5 18.4765 49.8196C18.3762 49.8823 18.1631 49.9011 18.0691 49.8384C15.0608 47.883 12.1652 45.7897 9.7648 43.0696C7.10115 40.0487 5.25853 36.6079 4.40617 32.6595C3.38458 27.915 3.58513 23.2333 5.30867 18.6706C6.69377 14.9916 9.00644 11.9331 11.8518 9.25068C13.8198 7.39553 15.957 5.75347 18.1318 4.16155C18.1694 4.13021 18.2133 4.10514 18.3574 4.0174ZM15.3741 36.5327C15.0545 38.1184 14.2836 39.4283 12.723 40.0989C12.1966 40.3245 11.62 40.4248 11.0371 40.5877V41.0139H25.496C25.5837 40.6504 25.5211 40.4624 25.1325 40.4686C24.8881 40.4686 24.6374 40.3934 24.3992 40.3308C22.6067 39.8294 21.6541 38.5508 21.1903 36.8398C20.8456 35.5738 20.8895 34.2764 20.8895 32.9791C20.8832 28.7235 20.8832 24.4617 20.8957 20.2061C20.8957 19.5731 20.9333 18.9338 21.0461 18.3134C21.3031 16.8593 21.9486 15.6184 23.2523 14.8036C23.9354 14.3774 24.6875 14.1643 25.5085 14.0954V13.6379H11.0183C11.0245 13.8134 11.0308 13.9512 11.0371 14.0829" fill="#610C21"/>
<path d="M26.5989 13.1428H9.95264V42.211H26.5989V13.1428Z" fill="#610C21"/>
<path d="M8.86865 17.0787H17.6556V17.5989H17.2482C16.4146 17.5989 15.7816 17.9123 15.3617 18.5453C14.9355 19.1783 14.7224 20.1372 14.7224 21.4158V30.491L21.3032 22.5815C21.7419 22.0362 22.0365 21.5913 22.1806 21.2465C22.331 20.9018 22.4063 20.5007 22.4063 20.0432C22.4063 19.2974 22.1932 18.702 21.767 18.257C21.3408 17.812 20.7642 17.5926 20.0372 17.5926H19.7175V17.0724H27.8401V17.5926H27.6395C26.5177 17.5926 24.9258 18.8461 22.8575 21.3531L20.1249 24.6184L24.3178 34.2765C24.7816 35.3482 25.2705 36.1316 25.7844 36.6142C26.2983 37.0968 26.8937 37.335 27.5769 37.335H27.8338V37.9178H19.2663V37.3475H19.7113C20.9773 37.3475 21.6103 36.9025 21.6103 36.0063C21.6103 35.8496 21.579 35.6741 21.5288 35.4924C21.4724 35.3106 21.3596 35.0098 21.1841 34.6024L18.0003 27.2319L14.7224 31.1741V33.562C14.7224 34.8343 14.9355 35.7869 15.3617 36.4137C15.7879 37.0404 16.4146 37.3538 17.2482 37.3538H17.6556V37.9367H8.88746V37.3475H9.27603C10.1284 37.3475 10.7677 37.0341 11.1876 36.4074C11.6075 35.7807 11.8206 34.828 11.8206 33.5557V21.422C11.8206 20.1372 11.6075 19.1783 11.1876 18.5516C10.7677 17.9185 10.1284 17.6052 9.27603 17.6052H8.86865V17.0787Z" fill="white"/>
<path d="M116.221 37.1699C115.502 36.4345 114.44 35.9932 113.394 35.9932C111.367 35.9932 109.798 37.8236 109.798 40.0462C109.798 42.2361 111.302 44.1155 113.443 44.1155C114.489 44.1155 115.535 43.6742 116.221 43.0042V40.4384H113.606V39.8174H116.76V43.331C115.878 44.1809 114.636 44.7365 113.394 44.7365C111.024 44.7365 109.161 42.6283 109.161 40.0462C109.161 37.464 111.041 35.3722 113.361 35.3722C114.554 35.3722 115.715 35.8788 116.613 36.7286L116.221 37.1699Z" stroke="#610C21" stroke-width="0.8" stroke-miterlimit="10"/>
<path d="M147.599 44.5404V35.5519H151.603C152.486 35.5519 153.156 35.8134 153.646 36.4181C154.022 36.8757 154.218 37.4313 154.218 38.0523C154.218 38.7224 153.973 39.3434 153.581 39.801C153.107 40.3403 152.453 40.5691 151.619 40.5691H148.22V44.524H147.599V44.5404ZM148.204 36.1729V39.9481H151.603C152.175 39.9481 152.714 39.8337 153.139 39.3598C153.45 39.0002 153.613 38.5426 153.613 38.0523C153.613 37.5948 153.466 37.1862 153.172 36.8267C152.796 36.3527 152.289 36.1729 151.587 36.1729H148.204Z" stroke="#610C21" stroke-width="0.8" stroke-miterlimit="10"/>
<path d="M164.693 35.5519V41.3372C164.693 43.4945 163.271 44.7201 161.376 44.7201C159.48 44.7201 158.058 43.4945 158.058 41.3372V35.5519H158.663V41.3372C158.663 43.1186 159.839 44.0991 161.376 44.0991C162.928 44.0991 164.105 43.1022 164.105 41.3372V35.5519H164.693Z" stroke="#610C21" stroke-width="0.8" stroke-miterlimit="10"/>
<path d="M169.547 44.5404V35.5519H173.747C174.678 35.5519 175.332 35.8624 175.79 36.4017C176.133 36.843 176.362 37.4313 176.362 38.1014C176.362 39.3107 175.626 40.324 174.433 40.5037L176.394 44.5404H175.708L173.812 40.5855H170.135V44.5404H169.547ZM170.135 36.1729V39.9481H174.041C175.087 39.9481 175.757 39.0819 175.757 38.085C175.757 37.5948 175.594 37.1535 175.332 36.8267C174.956 36.3691 174.45 36.1729 173.747 36.1729H170.135Z" stroke="#610C21" stroke-width="0.8" stroke-miterlimit="10"/>
<path d="M120.356 44.5404L123.902 35.5519H124.54L128.086 44.5404H127.432L126.223 41.4516H122.186L120.977 44.5404H120.356ZM122.399 40.8796H125.994L124.245 36.3527H124.18L122.399 40.8796Z" stroke="#610C21" stroke-width="0.8" stroke-miterlimit="10"/>
<path d="M137.826 44.5404H131.06V44.0828L136.878 36.1729H131.518V35.5519H137.695V36.0095L131.894 43.9193H137.826V44.5404Z" stroke="#610C21" stroke-width="0.8" stroke-miterlimit="10"/>
<path d="M142.598 35.5519H141.993V44.5404H142.598V35.5519Z" stroke="#610C21" stroke-width="0.8" stroke-miterlimit="10"/>
<path d="M45 18.1797H50.6055V18.4085H50.344C49.8047 18.4085 49.4125 18.5393 49.1347 18.8171C48.8569 19.0786 48.7261 19.4872 48.7261 20.0428V23.8997L52.9262 20.5494C53.204 20.3206 53.3838 20.1245 53.4818 19.9774C53.5799 19.8304 53.6289 19.6669 53.6289 19.4708C53.6289 19.1603 53.4982 18.8988 53.2203 18.7191C52.9425 18.5393 52.583 18.4412 52.1254 18.4412H51.9129V18.2124H57.0935V18.4412H56.9628C56.2437 18.4412 55.2305 18.9805 53.9231 20.0428L52.1744 21.4319L54.8546 25.5339C55.1488 25.9915 55.4593 26.3184 55.7861 26.5308C56.113 26.7433 56.4889 26.8413 56.9301 26.8413H57.0935V27.0865H51.6351V26.8413H51.9129C52.7137 26.8413 53.1223 26.6452 53.1223 26.2693C53.1223 26.204 53.1059 26.1223 53.0732 26.0569C53.0406 25.9752 52.9588 25.8608 52.8608 25.681L50.818 22.4942L48.7261 24.1611V25.1744C48.7261 25.7137 48.8569 26.1223 49.1347 26.3837C49.4125 26.6452 49.8047 26.776 50.344 26.776H50.6055V27.0211H45.0163V26.776H45.2615C45.8008 26.776 46.2094 26.6452 46.4872 26.3837C46.7487 26.1223 46.8957 25.7137 46.8957 25.1744V20.0265C46.8957 19.4872 46.765 19.0786 46.4872 18.8008C46.2257 18.5393 45.8171 18.3922 45.2615 18.3922H45V18.1797Z" fill="#610C21"/>
<path d="M62.8136 18H63.0424L66.6051 25.7464C66.7195 25.9915 66.8502 26.1876 66.981 26.3347C67.128 26.4982 67.2751 26.5962 67.4549 26.6779C67.6347 26.7433 67.8471 26.776 68.0759 26.776H68.3047V27.0211H63.1731V26.776H63.8432C64.17 26.776 64.4152 26.727 64.5786 26.6452C64.7257 26.5472 64.8074 26.4164 64.8074 26.2203C64.8074 26.1059 64.7747 25.9589 64.7093 25.7954C64.644 25.632 64.5132 25.3215 64.3008 24.8802C64.2844 24.8475 64.2681 24.8149 64.2517 24.7495C64.2191 24.6841 64.2027 24.6351 64.17 24.5861L64.0229 24.2592H60.2641L59.9863 24.9129C59.8883 25.1417 59.8392 25.3705 59.8392 25.583C59.8392 25.7791 59.8883 25.9752 60.0027 26.155C60.1171 26.3511 60.2478 26.4818 60.4276 26.5799C60.542 26.6452 60.64 26.6943 60.7381 26.7106C60.8361 26.727 60.9669 26.7433 61.1303 26.7596V27.0048H57.5513V26.7596C57.8128 26.7269 58.0252 26.6779 58.1723 26.6126C58.3194 26.5472 58.4991 26.4491 58.6953 26.302C59.1365 25.9588 59.5778 25.3051 60.0027 24.3409L62.8136 18ZM62.1435 20.0755L60.4112 24.0304H63.9249L62.1435 20.0755Z" fill="#610C21"/>
<path d="M70.233 18.1797H78.0611V18.4085L71.7202 26.7923H74.5475C75.5444 26.7923 76.3288 26.4491 76.9172 25.7464C77.1786 25.4195 77.3911 25.109 77.5545 24.7822C77.7179 24.4553 77.8977 23.9814 78.1102 23.344H78.339V27.0211H69.563V26.776L75.9366 18.3922H74.0409C72.9296 18.3922 72.0797 18.7354 71.5078 19.4054C71.279 19.6669 71.0829 19.9448 70.9358 20.2062C70.7887 20.4677 70.6416 20.8763 70.4455 21.3992H70.2167V18.1797H70.233Z" fill="#610C21"/>
<path d="M80.0544 26.7923H80.2996C80.8389 26.7923 81.2474 26.6616 81.5089 26.4001C81.7704 26.1386 81.9011 25.73 81.9011 25.1907C81.9011 24.9456 81.9011 24.7168 81.9011 24.5207C81.9011 24.3246 81.9011 24.1285 81.9011 23.9487C81.9011 23.7689 81.9011 23.4911 81.9011 23.1316C81.9011 21.6444 81.9011 20.5494 81.9011 19.8467C81.8685 19.5689 81.8194 19.3401 81.7377 19.1767C81.6723 19.0132 81.5579 18.8825 81.4272 18.7681C81.1657 18.5393 80.7898 18.4249 80.2832 18.4249H80.0381V18.1961H85.6109V18.4249H85.3658C84.8265 18.4249 84.4179 18.5556 84.1564 18.8171C83.8949 19.0786 83.7642 19.4872 83.7642 20.0265V25.1744C83.7642 25.7137 83.8949 26.1223 84.1564 26.3837C84.4179 26.6452 84.8265 26.776 85.3658 26.776H85.6109V27.0211H80.0381V26.7923H80.0544Z" fill="#610C21"/>
<path d="M96.7895 22.7067H94.7957V25.1908C94.7957 25.7301 94.9265 26.1386 95.1879 26.4001C95.4494 26.6616 95.858 26.7923 96.3973 26.7923H96.6588V27.0375H91.0859V26.7923H91.3311C91.8704 26.7923 92.2789 26.6616 92.5404 26.4001C92.8019 26.1386 92.9327 25.7301 92.9327 25.1908V20.0428C92.9327 19.4872 92.8019 19.095 92.5404 18.8335C92.2789 18.572 91.8704 18.4413 91.3311 18.4413H91.0859V18.2125H97.9498C98.8814 18.2125 99.6168 18.2778 100.156 18.4086C100.695 18.5393 101.12 18.7681 101.447 19.095C101.627 19.2747 101.774 19.4872 101.888 19.7487C102.003 19.9938 102.052 20.239 102.052 20.4841C102.052 21.1541 101.709 21.6934 101.006 22.0857C100.744 22.2327 100.401 22.3471 99.96 22.4615C99.5187 22.5759 99.0775 22.6413 98.6362 22.6903C98.3094 22.723 97.7864 22.723 97.1164 22.723V22.7557C97.4596 22.9682 97.7537 23.1643 98.0315 23.295C98.3094 23.4421 98.5872 23.5565 98.865 23.6546C99.1428 23.7526 99.4534 23.8507 99.8129 23.916L100.025 24.2265C100.172 24.4227 100.27 24.5861 100.336 24.6841C100.401 24.7822 100.483 24.8966 100.565 25.0273C100.793 25.3869 101.022 25.6974 101.235 25.9589C101.447 26.2203 101.627 26.4001 101.758 26.5145C102.035 26.6943 102.428 26.7923 102.934 26.7923H103.179V27.0375H99.8619L96.7895 22.7067ZM94.7957 22.4615H97.3125C97.9008 22.4615 98.3911 22.3962 98.7833 22.2491C99.1592 22.102 99.4534 21.8896 99.6331 21.579C99.8129 21.2849 99.9109 20.8927 99.9109 20.4351C99.9109 19.095 99.0611 18.4249 97.3452 18.4249H94.7794V22.4615H94.7957Z" fill="#610C21"/>
<path d="M103.801 18.1797H113.214V21.6117H113.018C112.838 21.007 112.691 20.5658 112.56 20.2716C112.43 19.9774 112.25 19.6996 112.021 19.4218C111.76 19.1113 111.465 18.8825 111.155 18.7517C110.632 18.5393 110.011 18.4249 109.259 18.4249H107.511V22.6249H107.984C108.687 22.6249 109.243 22.3308 109.651 21.7261C109.864 21.4156 110.011 21.056 110.125 20.6311C110.174 20.4514 110.223 20.1736 110.272 19.8304H110.501V25.632H110.272C110.223 25.3215 110.158 25.0273 110.093 24.7495C110.027 24.4717 109.946 24.2429 109.864 24.0794C109.782 23.8997 109.668 23.7362 109.537 23.5565C109.161 23.0825 108.622 22.8537 107.919 22.8537H107.56V26.8087H109.014C109.439 26.8087 109.831 26.776 110.174 26.7106C110.518 26.6452 110.828 26.5472 111.106 26.4328C111.384 26.302 111.645 26.1386 111.874 25.9261C112.283 25.583 112.609 25.1417 112.838 24.6187C112.969 24.3246 113.1 23.916 113.247 23.4094H113.476V27.0538H103.833L103.817 26.825H104.062C105.141 26.825 105.664 26.2857 105.664 25.2071V20.0591C105.664 19.5035 105.533 19.1113 105.272 18.8498C105.01 18.5883 104.602 18.4576 104.062 18.4576H103.817V18.1797H103.801Z" fill="#610C21"/>
<path d="M122.84 18.3595H123.068V21.3993H122.84C122.578 20.6638 122.268 20.0918 121.941 19.6833C121.696 19.3891 121.385 19.144 121.026 18.9315C120.65 18.7191 120.241 18.5393 119.783 18.4249C119.326 18.2942 118.868 18.2451 118.394 18.2451C118.051 18.2451 117.724 18.2942 117.463 18.3922C117.185 18.4903 116.956 18.6374 116.76 18.8171C116.629 18.9479 116.515 19.1113 116.433 19.2747C116.352 19.4381 116.319 19.6016 116.319 19.765C116.319 20.0592 116.433 20.3206 116.662 20.5331C116.76 20.6312 116.924 20.7456 117.12 20.8436C117.316 20.9417 117.577 21.0397 117.888 21.1214C118.198 21.2195 118.639 21.3339 119.195 21.4646C119.342 21.5137 119.457 21.5463 119.506 21.5463L119.816 21.6281L120.306 21.7588C121.14 21.9712 121.761 22.1674 122.137 22.3308C122.529 22.4942 122.856 22.7067 123.117 22.9845C123.33 23.1806 123.493 23.4094 123.608 23.6872C123.722 23.9487 123.787 24.2429 123.787 24.5534C123.787 24.8639 123.722 25.1581 123.591 25.4686C123.461 25.7791 123.281 26.0406 123.036 26.2694C122.725 26.5962 122.333 26.825 121.875 26.9884C121.418 27.1519 120.895 27.2336 120.306 27.2336C119.898 27.2336 119.506 27.1845 119.146 27.1028C118.787 27.0211 118.345 26.874 117.822 26.6452C117.479 26.5145 117.234 26.4164 117.054 26.3674C116.874 26.3184 116.711 26.302 116.548 26.302C116.253 26.302 115.992 26.3838 115.78 26.5472C115.567 26.7106 115.436 26.9231 115.371 27.2172H115.109V23.1316H115.338C115.42 23.8507 115.714 24.5207 116.221 25.109C116.515 25.4522 116.907 25.7791 117.365 26.0732C117.839 26.3674 118.313 26.5962 118.836 26.7596C119.342 26.9231 119.833 27.0048 120.29 27.0048C120.699 27.0048 121.075 26.9394 121.418 26.8087C121.761 26.6779 122.022 26.4818 122.219 26.2367C122.415 25.9915 122.496 25.7301 122.496 25.4195C122.496 25.0927 122.366 24.8149 122.104 24.5534C121.99 24.439 121.826 24.3409 121.647 24.2429C121.45 24.1448 121.222 24.0468 120.911 23.9487C120.601 23.8507 120.208 23.7199 119.685 23.5892L119.048 23.4257C118.067 23.1643 117.381 22.9518 116.989 22.8047C116.564 22.6413 116.221 22.4942 115.992 22.3308C115.747 22.1674 115.534 21.9713 115.355 21.7425C115.093 21.3993 114.962 21.0397 114.962 20.6312C114.962 20.1409 115.109 19.6996 115.404 19.3074C115.698 18.9152 116.106 18.6047 116.629 18.3922C117.152 18.1798 117.741 18.0654 118.378 18.0654C119.342 18.0654 120.339 18.3268 121.369 18.8662C121.728 19.0459 121.973 19.144 122.104 19.144C122.447 19.0786 122.692 18.8335 122.84 18.3595Z" fill="#610C21"/>
<path d="M130.357 18C131.191 18 131.943 18.1307 132.629 18.3922C133.315 18.6537 133.92 19.0459 134.427 19.5525C134.852 19.9775 135.178 20.4677 135.407 20.9907C135.636 21.5137 135.75 22.0693 135.75 22.6086C135.75 23.4421 135.522 24.2102 135.048 24.9129C134.574 25.6157 133.936 26.1713 133.136 26.5799C132.335 26.9884 131.436 27.2009 130.472 27.2009C129.736 27.2009 129.05 27.0865 128.396 26.8577C127.742 26.6289 127.17 26.302 126.68 25.8771C126.19 25.4522 125.798 24.9619 125.52 24.39C125.242 23.818 125.111 23.2296 125.111 22.6086C125.111 21.7915 125.356 21.0234 125.83 20.3207C126.304 19.6179 126.942 19.0459 127.742 18.6374C128.56 18.2125 129.426 18 130.357 18ZM130.521 18.2288C130.129 18.2288 129.769 18.2942 129.442 18.4249C129.099 18.5556 128.821 18.7518 128.576 18.9969C128.314 19.2584 128.102 19.5852 127.922 19.9448C127.742 20.3043 127.612 20.7129 127.514 21.1705C127.416 21.6281 127.383 22.102 127.383 22.625C127.383 23.2787 127.448 23.867 127.595 24.4063C127.742 24.9456 127.939 25.4032 128.216 25.7954C128.494 26.1876 128.805 26.4818 129.181 26.6779C129.557 26.874 129.981 26.9884 130.439 26.9884C131.06 26.9884 131.616 26.8087 132.073 26.4491C132.531 26.0896 132.89 25.583 133.136 24.9129C133.381 24.2429 133.511 23.4584 133.511 22.5432C133.511 21.9549 133.446 21.3993 133.315 20.8763C133.185 20.3533 132.988 19.9121 132.727 19.5362C132.465 19.1603 132.171 18.8498 131.812 18.621C131.632 18.5066 131.436 18.4086 131.191 18.3432C130.962 18.2615 130.733 18.2288 130.521 18.2288Z" fill="#610C21"/>
<path d="M143.007 22.7067H141.013V25.1908C141.013 25.7301 141.143 26.1386 141.405 26.4001C141.666 26.6616 142.075 26.7923 142.614 26.7923H142.876V27.0375H137.287V26.7923H137.532C138.071 26.7923 138.48 26.6616 138.741 26.4001C139.003 26.1386 139.133 25.7301 139.133 25.1908V20.0428C139.133 19.4872 139.003 19.095 138.741 18.8335C138.48 18.572 138.071 18.4413 137.532 18.4413H137.287V18.2125H144.151C145.082 18.2125 145.817 18.2778 146.357 18.4086C146.896 18.5393 147.321 18.7681 147.648 19.095C147.828 19.2747 147.975 19.4872 148.089 19.7487C148.203 19.9938 148.253 20.239 148.253 20.4841C148.253 21.1541 147.909 21.6934 147.207 22.0857C146.945 22.2327 146.602 22.3471 146.161 22.4615C145.719 22.5759 145.278 22.6413 144.837 22.6903C144.51 22.723 143.987 22.723 143.317 22.723V22.7557C143.66 22.9682 143.954 23.1643 144.232 23.295C144.51 23.4421 144.788 23.5565 145.066 23.6546C145.344 23.7526 145.654 23.8507 146.014 23.916L146.226 24.2265C146.373 24.4227 146.471 24.5861 146.537 24.6841C146.602 24.7822 146.684 24.8966 146.765 25.0273C146.994 25.3869 147.223 25.6974 147.435 25.9589C147.648 26.2203 147.828 26.4001 147.958 26.5145C148.236 26.6943 148.628 26.7923 149.135 26.7923H149.38V27.0375H146.063L143.007 22.7067ZM141.029 22.4615H143.546C144.134 22.4615 144.624 22.3962 145.017 22.2491C145.393 22.102 145.687 21.8896 145.866 21.579C146.046 21.2849 146.144 20.8927 146.144 20.4351C146.144 19.095 145.294 18.4249 143.579 18.4249H141.013V22.4615H141.029Z" fill="#610C21"/>
<path d="M150.099 18.1797H160.477V22.674L160.281 22.6903C160.183 21.5627 159.839 20.5985 159.267 19.7977C158.597 18.8825 157.731 18.4249 156.702 18.4249H156.244V25.1907C156.244 26.2693 156.783 26.7923 157.846 26.7923H159.186V27.0374H151.456V26.7923H152.779C153.858 26.7923 154.381 26.253 154.381 25.1907V18.4085H153.809C152.747 18.4085 151.897 18.8988 151.243 19.8957C150.916 20.386 150.671 20.958 150.508 21.628C150.459 21.8568 150.393 22.2 150.344 22.674H150.115V18.1797H150.099Z" fill="#610C21"/>
<path d="M168.893 22.3308L169.465 22.1347C169.22 21.53 169.105 20.9907 169.105 20.5168C169.105 20.0428 169.203 19.6179 169.383 19.2421C169.563 18.8498 169.824 18.5557 170.151 18.3432C170.478 18.1308 170.838 18.0164 171.246 18.0164C171.737 18.0164 172.145 18.1798 172.472 18.523C172.799 18.8662 172.946 19.2747 172.946 19.7977C172.946 20.0755 172.897 20.337 172.782 20.5495C172.684 20.7783 172.505 20.9744 172.292 21.1541C172.063 21.3339 171.769 21.4973 171.393 21.6608L171.688 22.0203C172.129 22.5923 172.554 23.0989 172.946 23.5728C173.142 23.818 173.469 24.1775 173.91 24.6678C174.319 24.2102 174.596 23.8016 174.793 23.4748C174.989 23.1479 175.07 22.8211 175.07 22.5269C175.07 22.2001 174.94 21.9222 174.695 21.7261C174.449 21.53 174.106 21.432 173.681 21.432H173.354V21.2032H177.653V21.432C177.391 21.4483 177.179 21.481 176.983 21.53C176.786 21.579 176.607 21.6771 176.427 21.7915C176.214 21.9386 176.018 22.102 175.855 22.2818C175.691 22.4779 175.495 22.7557 175.283 23.1479C175.087 23.4911 174.891 23.8016 174.711 24.0468C174.531 24.3083 174.335 24.5697 174.106 24.8312C174.531 25.2888 174.891 25.632 175.218 25.8281C175.544 26.0406 175.871 26.1386 176.182 26.1386C176.394 26.1386 176.59 26.0733 176.786 25.9589C176.983 25.8281 177.146 25.6647 177.277 25.4522C177.391 25.2561 177.489 25.06 177.554 24.8149C177.62 24.5861 177.653 24.2592 177.685 23.867H177.914C177.881 24.4063 177.816 24.8312 177.718 25.1417C177.62 25.4523 177.473 25.7628 177.26 26.0406C176.983 26.4165 176.639 26.6943 176.214 26.9067C175.79 27.1192 175.348 27.2173 174.891 27.2173C174.466 27.2173 174.074 27.1355 173.747 26.9885C173.403 26.8414 172.995 26.5635 172.505 26.1713C171.916 26.5145 171.328 26.776 170.756 26.9558C170.184 27.1192 169.596 27.2009 168.975 27.2009C168.435 27.2009 167.929 27.1355 167.438 27.0211C166.948 26.9067 166.572 26.7433 166.278 26.5309C165.755 26.1877 165.494 25.7301 165.494 25.1581C165.494 24.6678 165.706 24.1939 166.115 23.769C166.311 23.5728 166.523 23.3931 166.752 23.246C166.981 23.0989 167.259 22.9518 167.586 22.8211C167.912 22.6903 168.337 22.5269 168.893 22.3308ZM172.063 26.1223L172.292 25.9916C171.835 25.5667 171.312 24.962 170.707 24.1939C170.413 23.8016 170.2 23.4911 170.021 23.2297C169.857 22.9682 169.694 22.674 169.547 22.3635C169.154 22.4942 168.844 22.6086 168.631 22.723C168.419 22.8374 168.223 22.9682 168.043 23.1153C167.684 23.4258 167.504 23.8343 167.504 24.3409C167.504 24.5534 167.536 24.7659 167.586 24.9783C167.651 25.2071 167.733 25.4032 167.831 25.583C167.929 25.7628 168.059 25.9425 168.223 26.0896C168.664 26.5309 169.252 26.7597 169.972 26.7597C170.298 26.7597 170.609 26.7106 170.903 26.6289C171.214 26.5309 171.606 26.3674 172.063 26.1223ZM170.985 21.0888L171.23 21.432C171.589 21.2849 171.851 21.1215 171.998 20.9417C172.161 20.7619 172.227 20.5331 172.227 20.288C172.227 20.0755 172.178 19.8304 172.096 19.5362C172.014 19.2421 171.9 18.9969 171.769 18.8171C171.54 18.4576 171.263 18.2778 170.952 18.2778C170.707 18.2778 170.494 18.3759 170.315 18.5557C170.135 18.7354 170.053 18.9479 170.053 19.2094C170.053 19.4218 170.119 19.667 170.249 19.9284C170.38 20.1736 170.625 20.5658 170.985 21.0888Z" fill="#610C21"/>
<path d="M182.736 26.7923H183.013C183.553 26.7923 183.961 26.6616 184.223 26.4001C184.484 26.1386 184.615 25.73 184.615 25.1907C184.615 24.8966 184.615 24.6187 184.615 24.3409C184.615 24.0631 184.615 23.6382 184.615 23.0662C184.615 22.5106 184.615 21.8732 184.615 21.1868C184.615 20.5004 184.615 20.0428 184.615 19.814C184.582 19.5362 184.517 19.3237 184.452 19.1767C184.386 19.0132 184.288 18.8825 184.141 18.7681C183.88 18.5393 183.504 18.4249 182.997 18.4249H182.687V18.1961H188.276V18.4249H188.08C187.54 18.4249 187.132 18.5556 186.87 18.8171C186.609 19.0786 186.478 19.4872 186.478 20.0265V22.3962H191.25V20.0265C191.25 19.4708 191.119 19.0786 190.858 18.8171C190.596 18.5556 190.188 18.4249 189.648 18.4249H189.469V18.1961H194.993V18.4249H194.731C194.192 18.4249 193.783 18.5556 193.522 18.8171C193.26 19.0786 193.129 19.4872 193.129 20.0265V25.1744C193.129 25.7137 193.26 26.1223 193.538 26.3837C193.816 26.6452 194.208 26.776 194.747 26.776H195.009V27.0211H189.485V26.776H189.665C190.204 26.776 190.613 26.6452 190.874 26.3837C191.136 26.1223 191.266 25.7137 191.266 25.1744V22.6576H186.494V25.1744C186.494 25.7137 186.625 26.1223 186.903 26.3837C187.181 26.6452 187.573 26.776 188.112 26.776H188.308V27.0211H182.752V26.7923H182.736Z" fill="#610C21"/>
<path d="M201.464 18C202.297 18 203.049 18.1307 203.735 18.3922C204.422 18.6537 205.026 19.0459 205.533 19.5525C205.958 19.9775 206.285 20.4677 206.514 20.9907C206.742 21.5137 206.857 22.0693 206.857 22.6086C206.857 23.4421 206.628 24.2102 206.154 24.9129C205.68 25.6157 205.043 26.1713 204.242 26.5799C203.441 26.9884 202.542 27.2009 201.578 27.2009C200.843 27.2009 200.156 27.0865 199.503 26.8577C198.849 26.6289 198.277 26.302 197.787 25.8771C197.296 25.4522 196.904 24.9619 196.626 24.39C196.349 23.818 196.218 23.2296 196.218 22.6086C196.218 21.7915 196.463 21.0234 196.937 20.3207C197.411 19.6179 198.048 19.0459 198.849 18.6374C199.65 18.2125 200.532 18 201.464 18ZM201.627 18.2288C201.235 18.2288 200.875 18.2942 200.549 18.4249C200.205 18.5556 199.928 18.7518 199.682 18.9969C199.421 19.2584 199.208 19.5852 199.029 19.9448C198.849 20.3043 198.718 20.7129 198.62 21.1705C198.522 21.6281 198.489 22.102 198.489 22.625C198.489 23.2787 198.555 23.867 198.702 24.4063C198.849 24.9456 199.045 25.4032 199.323 25.7954C199.601 26.1876 199.911 26.4818 200.287 26.6779C200.663 26.874 201.088 26.9884 201.545 26.9884C202.166 26.9884 202.722 26.8087 203.18 26.4491C203.637 26.0896 203.997 25.583 204.242 24.9129C204.487 24.2429 204.618 23.4584 204.618 22.5432C204.618 21.9549 204.553 21.3993 204.422 20.8763C204.291 20.3533 204.095 19.9121 203.833 19.5362C203.572 19.1603 203.278 18.8498 202.918 18.621C202.738 18.5066 202.542 18.4086 202.297 18.3432C202.068 18.2615 201.84 18.2288 201.627 18.2288Z" fill="#610C21"/>
<path d="M208.23 18.1797H218.608V22.674L218.411 22.6903C218.313 21.5627 217.97 20.5985 217.398 19.7977C216.728 18.8825 215.862 18.4249 214.832 18.4249H214.375V25.1907C214.375 26.2693 214.914 26.7923 215.976 26.7923H217.316V27.0374H209.586V26.7923H210.91C211.989 26.7923 212.512 26.253 212.512 25.1907V18.4085H211.94C210.877 18.4085 210.028 18.8988 209.374 19.8957C209.047 20.386 208.802 20.958 208.639 21.628C208.59 21.8568 208.524 22.2 208.475 22.674H208.246V18.1797H208.23Z" fill="#610C21"/>
<path d="M219.506 18.1797H228.92V21.6117H228.724C228.544 21.007 228.397 20.5658 228.266 20.2716C228.135 19.9774 227.955 19.6996 227.727 19.4218C227.465 19.1113 227.171 18.8825 226.861 18.7517C226.338 18.5393 225.717 18.4249 224.965 18.4249H223.216V22.6249H223.69C224.393 22.6249 224.948 22.3308 225.357 21.7261C225.569 21.4156 225.717 21.056 225.831 20.6311C225.88 20.4514 225.929 20.1736 225.978 19.8304H226.207V25.632H225.978C225.929 25.3215 225.864 25.0273 225.798 24.7495C225.733 24.4717 225.651 24.2429 225.569 24.0794C225.488 23.8997 225.373 23.7362 225.243 23.5565C224.867 23.0825 224.327 22.8537 223.625 22.8537H223.265V26.8087H224.72C225.145 26.8087 225.537 26.776 225.88 26.7106C226.223 26.6452 226.534 26.5472 226.811 26.4328C227.089 26.302 227.351 26.1386 227.58 25.9261C227.988 25.583 228.315 25.1417 228.544 24.6187C228.675 24.3246 228.805 23.916 228.952 23.4094H229.181V27.0538H219.539L219.523 26.825H219.768C220.846 26.825 221.369 26.2857 221.369 25.2071V20.0591C221.369 19.5035 221.239 19.1113 220.977 18.8498C220.716 18.5883 220.307 18.4576 219.768 18.4576H219.523V18.1797H219.506Z" fill="#610C21"/>
<path d="M230.145 18.1797H236.176V18.4085H235.539C234.999 18.4085 234.591 18.5393 234.329 18.8008C234.068 19.0623 233.937 19.4708 233.937 20.0101V26.776H236.225C236.683 26.776 237.107 26.6779 237.5 26.4818C237.908 26.2857 238.251 26.0079 238.546 25.6483C238.725 25.4195 238.872 25.2071 239.02 24.9783C239.15 24.7658 239.281 24.488 239.412 24.1775C239.526 23.867 239.657 23.5074 239.771 23.0989H240V27.0211H230.129L230.113 26.7923H230.44C231.518 26.7923 232.041 26.253 232.041 25.1744V20.0265C232.041 18.9479 231.502 18.4249 230.44 18.4249H230.129V18.1797H230.145Z" fill="#610C21"/>
</svg>
